<?xml version="1.0" encoding="iso-8859-1"?>
<!-- Generator: Adobe Illustrator 19.0.0, SVG Export Plug-In . SVG Version: 6.00 Build 0)  -->
<svg xmlns="http://www.w3.org/2000/svg" xmlns:xlink="http://www.w3.org/1999/xlink" version="1.1" id="Layer_1" x="0px" y="0px" viewBox="0 0 512 512" style="enable-background:new 0 0 512 512;" xml:space="preserve">
<circle style="fill:#0088FF;" cx="256" cy="256" r="256"/>
<path style="fill:#005ED3;" d="M512,256c0-27.604-4.387-54.178-12.471-79.087L368.869,46.252H143.131v56.434l39.403,267.693  c0.562,3.818,2.496,7.132,5.256,9.48l16.15,15.4v1.848h-17.718v64.078c0,5.688,2.274,10.861,5.953,14.677l34.807,34.492  C236.508,511.428,246.187,512,256,512C397.385,512,512,397.385,512,256z"/>
<rect x="203.94" y="378.3" style="fill:#E1E1E3;" width="104.12" height="27.561"/>
<rect x="256" y="378.3" style="fill:#AEADB3;" width="52.06" height="27.56"/>
<path style="fill:#FFFFFF;" d="M143.131,93.049v9.637l39.403,267.693c1.113,7.563,7.602,13.167,15.247,13.167h116.437  c7.644,0,14.133-5.604,15.247-13.167l39.403-267.693v-9.637H143.131z"/>
<g>
	<path style="fill:#E1E1E3;" d="M368.87,93.05v9.64l-39.4,267.69c-1.12,7.56-7.61,13.17-15.25,13.17H256V93.05H368.87z"/>
	<rect x="143.13" y="46.25" style="fill:#E1E1E3;" width="225.74" height="56.43"/>
</g>
<rect x="256" y="46.25" style="fill:#AEADB3;" width="112.87" height="56.44"/>
<path style="fill:#6DD7A7;" d="M304.547,482.415h-97.095c-11.677,0-21.23-9.553-21.23-21.23v-64.078h139.555v64.078  C325.777,472.861,316.224,482.415,304.547,482.415z"/>
<path style="fill:#00C379;" d="M325.78,397.11v64.07c0,11.68-9.56,21.23-21.23,21.23H256v-85.3H325.78z"/>
<circle style="fill:#6DD7A7;" cx="256" cy="221.97" r="66.42"/>
<path style="fill:#00C379;" d="M322.43,221.97c0,36.69-29.74,66.43-66.43,66.43V155.54C292.69,155.54,322.43,185.28,322.43,221.97z"/>
<g>
</g>
<g>
</g>
<g>
</g>
<g>
</g>
<g>
</g>
<g>
</g>
<g>
</g>
<g>
</g>
<g>
</g>
<g>
</g>
<g>
</g>
<g>
</g>
<g>
</g>
<g>
</g>
<g>
</g>
</svg>
