<?xml version="1.0" encoding="iso-8859-1"?>
<!-- Generator: Adobe Illustrator 19.0.0, SVG Export Plug-In . SVG Version: 6.00 Build 0)  -->
<svg xmlns="http://www.w3.org/2000/svg" xmlns:xlink="http://www.w3.org/1999/xlink" version="1.1" id="Layer_1" x="0px" y="0px" viewBox="0 0 512 512" style="enable-background:new 0 0 512 512;" xml:space="preserve">
<circle style="fill:#FF4F19;" cx="256" cy="256" r="256"/>
<path style="fill:#EE2600;" d="M512,256c0-15.89-1.46-31.439-4.231-46.528l-33.777-33.777  C410.706,128.231,335.325,103.144,256,103.144s-154.706,25.088-217.992,72.551l25.012,33.349l30.136,29.615  c-3.839,2.996-7.613,6.091-11.299,9.311l27.426,31.393l29.904,29.645c-4.566,4.585-8.9,9.461-12.967,14.626l69.861,68.486  c-2.054,6.224-3.181,12.869-3.181,19.78c0,19.443,8.799,36.825,22.626,48.4l51.451,51.452C403.267,505.999,512,393.706,512,256z"/>
<circle style="fill:#FFFFFF;" cx="256" cy="411.9" r="63.1"/>
<path style="fill:#E1E1E3;" d="M319.1,411.9c0,34.85-28.25,63.1-63.1,63.1V348.8C290.85,348.8,319.1,377.05,319.1,411.9z"/>
<path style="fill:#FFDB2D;" d="M353.029,349.422C329.444,319.469,294.078,302.29,256,302.29s-73.444,17.179-97.029,47.132  l-32.752-25.789c31.54-40.055,78.843-63.029,129.781-63.029s98.241,22.973,129.781,63.029L353.029,349.422z"/>
<path style="fill:#00C379;" d="M385.78,323.63l-32.75,25.79c-23.59-29.95-58.95-47.13-97.03-47.13V260.6  C306.94,260.6,354.24,283.58,385.78,323.63z"/>
<path style="fill:#FFDB2D;" d="M402.718,279.361C362.106,243.883,310,224.343,256,224.343s-106.106,19.539-146.718,55.018  l-27.426-31.393c48.21-42.117,110.055-65.311,174.144-65.311s125.934,23.195,174.144,65.311L402.718,279.361z"/>
<path style="fill:#00C379;" d="M430.14,247.97l-27.42,31.39C362.11,243.88,310,224.34,256,224.34v-41.68  C320.09,182.66,381.93,205.85,430.14,247.97z"/>
<path style="fill:#FFDB2D;" d="M448.981,209.044C392.968,167.034,326.235,144.83,256,144.83s-136.967,22.205-192.981,64.214  l-25.012-33.349c63.286-47.464,138.667-72.551,217.992-72.551s154.706,25.088,217.992,72.551L448.981,209.044z"/>
<path style="fill:#00C379;" d="M473.99,175.7l-25.01,33.34c-56.01-42.01-122.74-64.21-192.98-64.21v-41.69  C335.33,103.14,410.71,128.23,473.99,175.7z"/>
<g>
</g>
<g>
</g>
<g>
</g>
<g>
</g>
<g>
</g>
<g>
</g>
<g>
</g>
<g>
</g>
<g>
</g>
<g>
</g>
<g>
</g>
<g>
</g>
<g>
</g>
<g>
</g>
<g>
</g>
</svg>
