<?xml version="1.0" encoding="iso-8859-1"?>
<!-- Generator: Adobe Illustrator 19.0.0, SVG Export Plug-In . SVG Version: 6.00 Build 0)  -->
<svg xmlns="http://www.w3.org/2000/svg" xmlns:xlink="http://www.w3.org/1999/xlink" version="1.1" id="Layer_1" x="0px" y="0px" viewBox="0 0 512 512" style="enable-background:new 0 0 512 512;" xml:space="preserve">
<circle style="fill:#83E46F;" cx="256" cy="256" r="256"/>
<path style="fill:#2AD827;" d="M511.631,269.744L363.254,121.368C336.845,91.827,298.5,73.153,256,73.153l0,0  c-79.166,0-143.939,64.772-143.939,143.939v43.058l-77.488,79.5l166.403,166.403C218.702,509.935,237.108,512,256,512  C392.773,512,504.488,404.738,511.631,269.744z"/>
<path style="fill:#FF4F19;" d="M399.939,260.15L399.939,260.15L399.939,260.15v-43.058c0-79.167-64.773-143.939-143.939-143.939l0,0  c-79.166,0-143.939,64.772-143.939,143.939v43.058l-77.488,79.5c9.842,4.249,16.776,11.239,23.164,17.686  c9.678,9.77,18.82,18.997,37.083,18.997c18.262,0,27.404-9.228,37.082-18.997c10.065-10.159,21.472-21.673,43.502-21.673  c22.031,0,33.439,11.515,43.504,21.673c9.678,9.77,18.821,18.997,37.083,18.997c18.263,0,27.405-9.228,37.084-18.997  c10.065-10.159,21.474-21.673,43.505-21.673c22.032,0,33.441,11.515,43.508,21.673c9.679,9.77,18.822,18.997,37.086,18.997  s27.406-9.228,37.086-18.997c6.389-6.448,13.324-13.438,23.167-17.687L399.939,260.15z"/>
<path style="fill:#EE2600;" d="M399.939,260.15L399.939,260.15v-43.058c0-79.167-64.773-143.939-143.939-143.939l0,0l0,0v303.18  c18.257-0.003,27.397-9.229,37.074-18.997c10.065-10.159,21.474-21.673,43.505-21.673c22.032,0,33.441,11.515,43.508,21.673  c9.679,9.77,18.822,18.997,37.086,18.997s27.406-9.228,37.086-18.997c6.389-6.448,13.324-13.438,23.167-17.687L399.939,260.15z"/>
<rect x="112.06" y="224.16" style="fill:#FFFFFF;" width="287.88" height="35.994"/>
<rect x="256" y="224.16" style="fill:#E1E1E3;" width="143.94" height="35.995"/>
<g>
</g>
<g>
</g>
<g>
</g>
<g>
</g>
<g>
</g>
<g>
</g>
<g>
</g>
<g>
</g>
<g>
</g>
<g>
</g>
<g>
</g>
<g>
</g>
<g>
</g>
<g>
</g>
<g>
</g>
</svg>
