<?xml version="1.0" encoding="iso-8859-1"?>
<!-- Generator: Adobe Illustrator 19.0.0, SVG Export Plug-In . SVG Version: 6.00 Build 0)  -->
<svg xmlns="http://www.w3.org/2000/svg" xmlns:xlink="http://www.w3.org/1999/xlink" version="1.1" id="Layer_1" x="0px" y="0px" viewBox="0 0 512 512" style="enable-background:new 0 0 512 512;" xml:space="preserve">
<circle style="fill:#FFED97;" cx="256" cy="256" r="256"/>
<path style="fill:#FFDB2D;" d="M512,256c0-15.641-1.408-30.953-4.095-45.82l-42.169-42.169c-3.885-4.519-8.541-8.736-13.888-12.427  c-8.346-5.762-17.292-9.493-25.935-11.214L351.348,68H160.647v48.457l52.196,50.918C141.705,183.683,88.128,239.35,82.648,307  h-0.003c-0.007,0.082-0.011,0.164-0.018,0.246c-0.058,0.735-0.11,1.471-0.157,2.208c-0.02,0.311-0.038,0.622-0.056,0.933  c-0.037,0.658-0.073,1.316-0.102,1.977c-0.021,0.49-0.036,0.983-0.053,1.474c-0.016,0.506-0.036,1.011-0.047,1.518  c-0.023,1.033-0.037,2.067-0.037,3.105c0,41.198,17.814,78.658,46.898,106.538h0.167l83.187,83.29  C226.591,510.719,241.145,512,256,512C397.385,512,512,397.385,512,256z"/>
<path style="fill:#C06100;" d="M405.572,175.878c-44.561-38.636-113.363-33.651-114.052-33.595l-0.793-9.969  c2.987-0.235,73.702-5.343,121.396,36.007L405.572,175.878z"/>
<rect x="214.66" y="97.96" style="fill:#FF9A00;" width="82.67" height="72.946"/>
<rect x="256" y="97.96" style="fill:#E67500;" width="41.33" height="72.95"/>
<path style="fill:#00C379;" d="M429.818,318.462c0-86.13-77.822-155.952-173.821-155.952S82.176,232.332,82.176,318.462  c0,41.199,17.814,78.659,46.898,106.538H382.92C412.004,397.12,429.818,359.66,429.818,318.462z"/>
<g>
	<path style="fill:#00A753;" d="M429.82,318.46c0,41.2-17.82,78.66-46.9,106.54H256V162.51C352,162.51,429.82,232.33,429.82,318.46z   "/>
	
		<ellipse transform="matrix(0.5681 -0.8229 0.8229 0.5681 31.6683 434.7069)" style="fill:#00A753;" cx="430.005" cy="187.181" rx="38.418" ry="53.712"/>
</g>
<rect x="160.65" y="68" style="fill:#C06100;" width="190.7" height="48.46"/>
<rect x="256" y="68" style="fill:#9A4C00;" width="95.35" height="48.46"/>
<g>
</g>
<g>
</g>
<g>
</g>
<g>
</g>
<g>
</g>
<g>
</g>
<g>
</g>
<g>
</g>
<g>
</g>
<g>
</g>
<g>
</g>
<g>
</g>
<g>
</g>
<g>
</g>
<g>
</g>
</svg>
