<?xml version="1.0" encoding="iso-8859-1"?>
<!-- Generator: Adobe Illustrator 19.0.0, SVG Export Plug-In . SVG Version: 6.00 Build 0)  -->
<svg xmlns="http://www.w3.org/2000/svg" xmlns:xlink="http://www.w3.org/1999/xlink" version="1.1" id="Layer_1" x="0px" y="0px" viewBox="0 0 512 512" style="enable-background:new 0 0 512 512;" xml:space="preserve">
<circle style="fill:#CAE8F9;" cx="256" cy="256" r="256"/>
<path style="fill:#84CAFF;" d="M512,256c0-29.732-5.086-58.272-14.406-84.82L390.743,64.33H121.257v383.34l49.923,49.923  C197.727,506.914,226.268,512,256,512C397.385,512,512,397.385,512,256z"/>
<polygon style="fill:#FF4F19;" points="390.743,447.67 255.997,361.146 121.257,447.67 121.257,64.33 390.743,64.33 "/>
<polygon style="fill:#FF3200;" points="390.74,64.33 390.74,447.67 256,361.15 256,64.33 "/>
<rect x="261.33" y="103.35" style="fill:#E1E1E3;" width="87.75" height="26.21"/>
<g>
	<rect x="162.91" y="103.35" style="fill:#FFFFFF;" width="24.03" height="26.21"/>
	<rect x="195.94" y="103.35" style="fill:#FFFFFF;" width="11.823" height="26.21"/>
	<rect x="217.39" y="103.35" style="fill:#FFFFFF;" width="11.823" height="26.21"/>
	<rect x="238.84" y="103.35" style="fill:#FFFFFF;" width="11.823" height="26.21"/>
	<path style="fill:#FFFFFF;" d="M199.508,267.874c-0.363-0.363-1.025-0.856-1.984-1.479c-0.961-0.622-2.128-1.232-3.502-1.829   c-1.375-0.596-2.867-1.102-4.474-1.517c-1.608-0.414-3.243-0.623-4.902-0.623c-2.957,0-5.162,0.545-6.614,1.634   c-1.453,1.09-2.179,2.62-2.179,4.591c0,1.141,0.272,2.088,0.817,2.839c0.545,0.753,1.335,1.414,2.374,1.984   c1.037,0.572,2.346,1.089,3.929,1.556c1.582,0.467,3.41,0.96,5.486,1.479c2.697,0.727,5.148,1.505,7.353,2.335   c2.204,0.83,4.072,1.867,5.603,3.112c1.53,1.245,2.71,2.737,3.54,4.475c0.829,1.738,1.245,3.878,1.245,6.419   c0,2.957-0.558,5.486-1.673,7.587c-1.116,2.101-2.62,3.801-4.513,5.096c-1.894,1.298-4.073,2.245-6.536,2.84   c-2.464,0.595-5.046,0.895-7.742,0.895c-4.151,0-8.248-0.622-12.294-1.868c-4.047-1.245-7.678-3.008-10.894-5.291l4.747-9.26   c0.467,0.467,1.309,1.078,2.529,1.829c1.218,0.753,2.658,1.506,4.319,2.257c1.66,0.753,3.501,1.388,5.525,1.907   c2.023,0.519,4.097,0.778,6.225,0.778c5.914,0,8.87-1.893,8.87-5.681c0-1.193-0.338-2.204-1.012-3.034   c-0.675-0.83-1.634-1.556-2.879-2.179s-2.75-1.193-4.514-1.712c-1.764-0.519-3.735-1.09-5.913-1.712   c-2.646-0.726-4.941-1.518-6.886-2.374s-3.568-1.868-4.863-3.034c-1.298-1.167-2.27-2.516-2.918-4.047   c-0.649-1.529-0.973-3.358-0.973-5.486c0-2.801,0.518-5.291,1.556-7.47c1.037-2.179,2.477-3.994,4.318-5.446   c1.841-1.452,3.981-2.555,6.42-3.307c2.438-0.752,5.058-1.128,7.859-1.128c3.891,0,7.47,0.61,10.738,1.829s6.12,2.658,8.559,4.318   L199.508,267.874z"/>
	<path style="fill:#FFFFFF;" d="M229.077,253.4h9.493l21.009,55.247H248.53l-5.136-13.773h-19.298l-5.058,13.773H207.99   L229.077,253.4z M241.449,287.326l-7.626-21.71l-7.937,21.71H241.449z"/>
</g>
<g>
	<path style="fill:#E1E1E3;" d="M256,299.24v9.41h3.58L256,299.24z"/>
	<path style="fill:#E1E1E3;" d="M265.649,308.647V253.4h10.738v45.831h28.168v9.415h-38.906V308.647z"/>
	<path style="fill:#E1E1E3;" d="M349.452,299.232v9.415h-38.361V253.4h37.661v9.415h-26.923v13.306h23.266v8.715h-23.266v14.396   H349.452z"/>
</g>
<g>
	<path style="fill:#FFFFFF;" d="M230.613,215.202c0,3.551-0.71,6.669-2.13,9.351c-1.421,2.683-3.373,4.932-5.858,6.746   c-2.485,1.816-5.367,3.195-8.64,4.143c-3.275,0.946-6.767,1.42-10.475,1.42h-40.595V152.83h44.974c2.919,0,5.563,0.633,7.93,1.894   c2.367,1.263,4.379,2.899,6.036,4.912c1.657,2.012,2.939,4.301,3.847,6.864c0.906,2.564,1.361,5.148,1.361,7.752   c0,4.104-1.026,7.95-3.077,11.54c-2.053,3.591-5.05,6.254-8.995,7.988c4.812,1.421,8.62,3.965,11.421,7.634   C229.212,205.083,230.613,209.681,230.613,215.202z M179.248,166.796v21.186h21.777c2.761,0,5.108-0.947,7.042-2.841   c1.933-1.893,2.9-4.497,2.9-7.811c0-3.234-0.888-5.799-2.663-7.692c-1.775-1.895-3.965-2.841-6.569-2.841L179.248,166.796   L179.248,166.796z M214.162,212.125c0-1.497-0.257-2.939-0.769-4.319c-0.514-1.38-1.204-2.584-2.071-3.61   c-0.869-1.024-1.894-1.834-3.077-2.426c-1.184-0.592-2.486-0.888-3.906-0.888h-25.091v22.132h24.263c1.498,0,2.9-0.275,4.202-0.828   c1.302-0.551,2.426-1.32,3.373-2.308c0.947-0.986,1.696-2.149,2.248-3.492C213.885,215.045,214.162,213.625,214.162,212.125z"/>
	<path style="fill:#FFFFFF;" d="M247.834,236.861V152.83h16.333v84.031H247.834z"/>
</g>
<g>
	<path style="fill:#E1E1E3;" d="M256,152.83v84.03h8.17v-84.03H256z"/>
	<path style="fill:#E1E1E3;" d="M335.592,227.393c-6.707,6.708-14.519,10.061-23.434,10.061c-5.523,0-10.711-1.104-15.563-3.313   c-4.853-2.209-9.074-5.247-12.664-9.113c-3.591-3.865-6.432-8.422-8.522-13.67c-2.092-5.247-3.137-10.907-3.137-16.984   c0-5.759,1.045-11.185,3.137-16.273c2.089-5.089,4.971-9.546,8.64-13.374c3.669-3.826,7.989-6.864,12.96-9.113   c4.971-2.249,10.375-3.373,16.214-3.373c7.889,0,14.655,1.657,20.298,4.971c5.64,3.314,9.882,7.772,12.723,13.374l-12.19,8.995   c-2.13-4.182-5.109-7.377-8.936-9.587c-3.828-2.208-7.989-3.313-12.486-3.313c-3.551,0-6.805,0.751-9.764,2.248   c-2.959,1.5-5.485,3.551-7.575,6.155c-2.091,2.604-3.709,5.602-4.853,8.994c-1.145,3.394-1.716,6.983-1.716,10.771   c0,3.946,0.631,7.634,1.894,11.066c1.261,3.432,2.998,6.411,5.208,8.936c2.208,2.526,4.832,4.518,7.871,5.977   c3.036,1.461,6.332,2.189,9.882,2.189c8.126,0,15.464-3.826,22.014-11.48v-5.917h-16.924v-11.954h30.417v43.199h-13.493   L335.592,227.393L335.592,227.393z"/>
</g>
<g>
</g>
<g>
</g>
<g>
</g>
<g>
</g>
<g>
</g>
<g>
</g>
<g>
</g>
<g>
</g>
<g>
</g>
<g>
</g>
<g>
</g>
<g>
</g>
<g>
</g>
<g>
</g>
<g>
</g>
</svg>
