<?xml version="1.0" encoding="iso-8859-1"?>
<!-- Generator: Adobe Illustrator 19.0.0, SVG Export Plug-In . SVG Version: 6.00 Build 0)  -->
<svg xmlns="http://www.w3.org/2000/svg" xmlns:xlink="http://www.w3.org/1999/xlink" version="1.1" id="Layer_1" x="0px" y="0px" viewBox="0 0 512 512" style="enable-background:new 0 0 512 512;" xml:space="preserve">
<circle style="fill:#0088FF;" cx="256" cy="256" r="256"/>
<path style="fill:#005ED3;" d="M512,256c0-21.079-2.566-41.556-7.37-61.154L368.2,58.417H143.799l-10.422,45.766h-22.456v45.948  l18.606,13.636l5.712,55.12h-8.618l13.171,127.094l9.325,6.818l9.504,91.702l13.262,10.029v17.053l35.854,35.854  C223.369,510.42,239.499,512,256,512C397.385,512,512,397.385,512,256z"/>
<rect x="171.88" y="441.01" style="fill:#E1E1E3;" width="168.23" height="30.571"/>
<rect x="256" y="441.01" style="fill:#C8C6CC;" width="84.12" height="30.57"/>
<polygon style="fill:#FFFFFF;" points="125.102,121.07 158.621,444.501 353.379,444.501 386.898,121.07 "/>
<polygon style="fill:#E1E1E3;" points="386.9,121.07 353.38,444.5 256,444.5 256,121.07 "/>
<polygon style="fill:#9A4C00;" points="368.201,58.417 143.799,58.417 125.756,137.649 386.243,137.649 "/>
<polygon style="fill:#703700;" points="386.24,137.65 256,137.65 256,58.42 368.2,58.42 "/>
<polygon style="fill:#00C379;" points="126.621,218.887 139.793,345.982 372.207,345.982 385.379,218.887 "/>
<polygon style="fill:#00A753;" points="385.38,218.89 372.21,345.98 256,345.98 256,218.89 "/>
<path style="fill:#E67500;" d="M285.848,104.183c0,16.485-13.363,29.848-29.848,29.848s-29.848-13.363-29.848-29.848H110.921v45.948  h290.157v-45.948L285.848,104.183L285.848,104.183z"/>
<path style="fill:#C06100;" d="M401.08,104.18v45.95H256v-16.1c16.48,0,29.85-13.36,29.85-29.85H401.08z"/>
<circle style="fill:#FFED97;" cx="256" cy="282.44" r="48"/>
<path style="fill:#FFDB2D;" d="M304,282.43c0,26.51-21.49,48-48,48v-96C282.51,234.43,304,255.92,304,282.43z"/>
<g>
</g>
<g>
</g>
<g>
</g>
<g>
</g>
<g>
</g>
<g>
</g>
<g>
</g>
<g>
</g>
<g>
</g>
<g>
</g>
<g>
</g>
<g>
</g>
<g>
</g>
<g>
</g>
<g>
</g>
</svg>
