<?xml version="1.0" encoding="iso-8859-1"?>
<!-- Generator: Adobe Illustrator 19.0.0, SVG Export Plug-In . SVG Version: 6.00 Build 0)  -->
<svg xmlns="http://www.w3.org/2000/svg" xmlns:xlink="http://www.w3.org/1999/xlink" version="1.1" id="Layer_1" x="0px" y="0px" viewBox="0 0 512 512" style="enable-background:new 0 0 512 512;" xml:space="preserve">
<circle style="fill:#FF4F19;" cx="256" cy="256" r="256"/>
<path style="fill:#EE2600;" d="M509.579,291.205l-16.285-16.285l-24.522-6.837L297.904,97.46C287.817,85.568,272.779,78,256,78  c-27.47,0-50.296,20.26-54.32,46.623h-6.999v16.652l52.993,51.322v18.482L18.706,274.92l11.181,40.1l12.831,12.831l0.113-0.032  v27.179l148.85,148.85C212.232,509.167,233.785,512,256,512C385.439,512,492.422,415.929,509.579,291.205z"/>
<path style="fill:#FFFFFF;" d="M264.326,222.539v-35.27c26.363-4.025,46.624-26.85,46.624-54.321C310.95,102.65,286.299,78,256,78  c-27.47,0-50.296,20.26-54.32,46.623h-6.999v16.652h23.021v-8.326c0-21.117,17.18-38.297,38.298-38.297s38.298,17.18,38.298,38.297  s-17.18,38.298-38.298,38.298h-8.326v51.293L42.83,281.472v73.526h426.34v-73.526L264.326,222.539z M452.518,338.347H59.482v-44.339  L256,237.47l196.518,56.537V338.347z"/>
<path style="fill:#E1E1E3;" d="M469.17,281.472l-204.844-58.933v-35.27c26.363-4.025,46.624-26.85,46.624-54.32  C310.95,102.65,286.299,78,256,78v16.651c21.118,0,38.298,17.18,38.298,38.297s-17.18,38.298-38.298,38.298v66.224l196.518,56.537  v44.339H256v16.651h213.17L469.17,281.472L469.17,281.472z"/>
<polygon style="fill:#FFDB2D;" points="493.294,274.92 256,208.757 18.706,274.92 29.886,315.02 256,251.975 482.114,315.02 "/>
<polygon style="fill:#FDC000;" points="256,208.757 256,251.975 482.114,315.02 493.294,274.92 "/>
<path style="fill:#FFDB2D;" d="M140.796,380.932h-20.404c-6.6,0-12-5.4-12-12V327.02c0-6.6,5.4-12,12-12h20.404c6.6,0,12,5.4,12,12  v41.912C152.796,375.532,147.396,380.932,140.796,380.932z"/>
<path style="fill:#FDC000;" d="M391.608,380.932h-20.404c-6.6,0-12-5.4-12-12V327.02c0-6.6,5.4-12,12-12h20.404c6.6,0,12,5.4,12,12  v41.912C403.608,375.532,398.208,380.932,391.608,380.932z"/>
<g>
</g>
<g>
</g>
<g>
</g>
<g>
</g>
<g>
</g>
<g>
</g>
<g>
</g>
<g>
</g>
<g>
</g>
<g>
</g>
<g>
</g>
<g>
</g>
<g>
</g>
<g>
</g>
<g>
</g>
</svg>
