<?xml version="1.0" encoding="iso-8859-1"?>
<!-- Generator: Adobe Illustrator 19.0.0, SVG Export Plug-In . SVG Version: 6.00 Build 0)  -->
<svg xmlns="http://www.w3.org/2000/svg" xmlns:xlink="http://www.w3.org/1999/xlink" version="1.1" id="Layer_1" x="0px" y="0px" viewBox="0 0 512 512" style="enable-background:new 0 0 512 512;" xml:space="preserve">
<circle style="fill:#FFED97;" cx="256" cy="256" r="256"/>
<path style="fill:#FFDB2D;" d="M507.319,304.879L297.161,94.721c-2.755-3.682-6.189-6.224-9.735-9.218  c-8.383-7.076-37.078-31.585-51.911-43.944c-14.832-12.36-26.733-17.166-26.733,4.12c0,17.684,0,116.871,0,149.936h-20.54v122.221  h-21.994V469.58l36.957,36.957C220.243,510.11,237.9,512,256,512C380.667,512,484.502,422.881,507.319,304.879z"/>
<path style="fill:#FF4F19;" d="M208.782,206.35c0,0,0-139.386,0-160.672s11.9-16.479,26.733-4.12  c14.833,12.359,43.528,36.869,51.911,43.944c8.196,6.918,15.793,11.414,15.793,33.172s0,87.675,0,87.675L208.782,206.35  L208.782,206.35z"/>
<path style="fill:#FF3200;" d="M303.22,118.676c0,21.761,0,87.673,0,87.673H256V58.823c12.846,10.881,26.148,22.227,31.426,26.685  C295.622,92.417,303.22,96.915,303.22,118.676z"/>
<rect x="188.24" y="195.61" style="fill:#57555C;" width="135.52" height="125.46"/>
<g>
	<rect x="256" y="195.61" style="fill:#3C3B41;" width="67.755" height="125.46"/>
	<rect x="166.25" y="317.83" style="fill:#3C3B41;" width="179.5" height="151.75"/>
</g>
<rect x="256" y="317.84" style="fill:#2A2A2C;" width="89.75" height="151.74"/>
<g>
</g>
<g>
</g>
<g>
</g>
<g>
</g>
<g>
</g>
<g>
</g>
<g>
</g>
<g>
</g>
<g>
</g>
<g>
</g>
<g>
</g>
<g>
</g>
<g>
</g>
<g>
</g>
<g>
</g>
</svg>
