<?xml version="1.0" encoding="iso-8859-1"?>
<!-- Generator: Adobe Illustrator 19.0.0, SVG Export Plug-In . SVG Version: 6.00 Build 0)  -->
<svg xmlns="http://www.w3.org/2000/svg" xmlns:xlink="http://www.w3.org/1999/xlink" version="1.1" id="Layer_1" x="0px" y="0px" viewBox="0 0 512 512" style="enable-background:new 0 0 512 512;" xml:space="preserve">
<circle style="fill:#CAE8F9;" cx="256" cy="256" r="256"/>
<path style="fill:#84CAFF;" d="M512,256c0-23.594-3.208-46.436-9.183-68.131L361.907,47.232  c-14.512-9.599-34.057-5.617-43.657,8.895c-6.356,9.609-6.752,21.424-2.084,31.098l-57.254,86.554  c-0.964-0.067-1.934-0.112-2.915-0.112c-15.312,0-28.692,8.244-35.964,20.531H85.457c-13.475,0-24.5,11.025-24.5,24.5v8.344  c0,7.077,3.044,13.476,7.885,17.958l22.67,22.497l14.937,148.63c0.869,8.645,4.799,16.303,10.651,21.945l62.567,62.352  C203.776,507.945,229.414,512,256,512C397.385,512,512,397.385,512,256z"/>
<path style="fill:#E1E1E3;" d="M426.543,194.197H291.961c-1.217-2.055-2.604-3.995-4.143-5.804l55.18-83.419  c10.73,0.511,21.447-4.476,27.804-14.085c9.599-14.512,5.617-34.058-8.895-43.657s-34.057-5.617-43.657,8.895  c-6.356,9.609-6.752,21.424-2.084,31.098l-57.254,86.554c-0.964-0.067-1.934-0.112-2.915-0.112  c-15.312,0-28.692,8.244-35.964,20.531H85.457c-13.475,0-24.5,11.025-24.5,24.5v8.344c0,13.475,11.025,24.5,24.5,24.5h4.451  l16.541,164.586c1.819,18.095,17.05,31.872,35.237,31.872h228.628c18.187,0,33.418-13.777,35.236-31.873l16.541-164.586h4.451  c13.475,0,24.5-11.025,24.5-24.5v-8.344C451.043,205.222,440.018,194.197,426.543,194.197z"/>
<path style="fill:#FF4F19;" d="M87.383,226.405l19.067,189.722C108.268,434.223,123.499,448,141.686,448h228.628  c18.187,0,33.418-13.777,35.237-31.873l19.067-189.722L87.383,226.405L87.383,226.405z"/>
<path style="fill:#EE2600;" d="M424.62,226.41l-19.07,189.72C403.73,434.22,388.5,448,370.31,448H256V226.41H424.62z"/>
<path style="fill:#0088FF;" d="M426.543,251.542H85.457c-13.475,0-24.5-11.025-24.5-24.5v-8.345c0-13.475,11.025-24.5,24.5-24.5  h341.085c13.475,0,24.5,11.025,24.5,24.5v8.345C451.043,240.517,440.017,251.542,426.543,251.542z"/>
<g>
	<path style="fill:#006EF5;" d="M451.04,218.702v8.34c0,13.48-11.02,24.5-24.5,24.5H256v-57.34h170.54   C440.02,194.202,451.04,205.222,451.04,218.702z"/>
	
		<rect x="287.809" y="71.777" transform="matrix(-0.834 -0.5517 0.5517 -0.834 482.9191 415.0838)" style="fill:#006EF5;" width="32.169" height="126.256"/>
</g>
<circle style="fill:#FFFFFF;" cx="256" cy="215.44" r="41.77"/>
<g>
	<path style="fill:#E1E1E3;" d="M297.766,215.436c0-23.068-18.699-41.768-41.766-41.77v83.539   C279.067,257.203,297.766,238.503,297.766,215.436z"/>
	<circle style="fill:#E1E1E3;" cx="344.53" cy="73.51" r="31.504"/>
</g>
<path style="fill:#FFFFFF;" d="M166.266,419.151h-2.477c-11,0-20-9-20-20v-102.3c0-11,9-20,20-20h2.477c11,0,20,9,20,20v102.3  C186.266,410.151,177.266,419.151,166.266,419.151z"/>
<path style="fill:#E1E1E3;" d="M348.211,419.151h-2.478c-11,0-20-9-20-20v-102.3c0-11,9-20,20-20h2.478c11,0,20,9,20,20v102.3  C368.211,410.151,359.211,419.151,348.211,419.151z"/>
<path style="fill:#FFFFFF;" d="M257.239,419.151h-2.478c-11,0-20-9-20-20v-102.3c0-11,9-20,20-20h2.478c11,0,20,9,20,20v102.3  C277.239,410.151,268.239,419.151,257.239,419.151z"/>
<path style="fill:#E1E1E3;" d="M277.24,296.85v102.3c0,11-9,20-20,20H256v-142.3h1.24C268.24,276.85,277.24,285.85,277.24,296.85z"/>
<g>
</g>
<g>
</g>
<g>
</g>
<g>
</g>
<g>
</g>
<g>
</g>
<g>
</g>
<g>
</g>
<g>
</g>
<g>
</g>
<g>
</g>
<g>
</g>
<g>
</g>
<g>
</g>
<g>
</g>
</svg>
