<?xml version="1.0" encoding="iso-8859-1"?>
<!-- Generator: Adobe Illustrator 19.0.0, SVG Export Plug-In . SVG Version: 6.00 Build 0)  -->
<svg xmlns="http://www.w3.org/2000/svg" xmlns:xlink="http://www.w3.org/1999/xlink" version="1.1" id="Layer_1" x="0px" y="0px" viewBox="0 0 512 512" style="enable-background:new 0 0 512 512;" xml:space="preserve">
<circle style="fill:#FFED97;" cx="256" cy="256" r="256"/>
<path style="fill:#FFDB2D;" d="M512,256c0-27.563-4.374-54.1-12.435-78.977L390.026,66.843c-4.384-4.377-10.425-7.093-17.072-7.093  H139.046c-13.313,0-24.204,10.892-24.204,24.204v344.091c0,7.402,3.37,14.053,8.649,18.501l53.597,53.04  C201.946,507.634,228.461,512,256,512C397.385,512,512,397.385,512,256z"/>
<path style="fill:#FF4F19;" d="M372.954,452.25H139.046c-13.313,0-24.204-10.892-24.204-24.204V83.954  c0-13.312,10.892-24.204,24.204-24.204h233.909c13.313,0,24.204,10.892,24.204,24.204v344.091  C397.159,441.358,386.267,452.25,372.954,452.25z"/>
<path style="fill:#EE2600;" d="M397.16,83.95v344.1c0,13.31-10.89,24.2-24.21,24.2H256V59.75h116.95  C386.27,59.75,397.16,70.64,397.16,83.95z"/>
<rect x="135.76" y="98.62" style="fill:#FFFFFF;" width="240.47" height="328.29"/>
<rect x="256" y="98.62" style="fill:#E1E1E3;" width="120.24" height="328.29"/>
<path style="fill:#FDC000;" d="M301.604,126.663h-91.208c-6.6,0-12-5.4-12-12V82.579c0-6.6,5.4-12,12-12h91.208c6.6,0,12,5.4,12,12  v32.084C313.604,121.263,308.204,126.663,301.604,126.663z"/>
<path style="fill:#FF9A00;" d="M313.6,82.58v32.08c0,6.6-5.4,12-12,12H256V70.58h45.6C308.2,70.58,313.6,75.98,313.6,82.58z"/>
<circle style="fill:#83E46F;" cx="187.81" cy="202.36" r="23.901"/>
<polygon style="fill:#3C3B41;" points="189.915,218.998 169.312,198.395 176.786,190.921 189.915,204.05 212.035,181.931   219.509,189.405 "/>
<circle style="fill:#83E46F;" cx="187.81" cy="278.08" r="23.901"/>
<polygon style="fill:#3C3B41;" points="189.915,294.71 169.312,274.107 176.786,266.633 189.915,279.762 212.035,257.642   219.509,265.116 "/>
<circle style="fill:#83E46F;" cx="187.81" cy="353.79" r="23.901"/>
<polygon style="fill:#3C3B41;" points="189.915,370.422 169.312,349.819 176.786,342.345 189.915,355.474 212.035,333.354   219.509,340.828 "/>
<rect x="237.91" y="194.2" style="fill:#57555C;" width="110.19" height="16.324"/>
<rect x="256" y="194.2" style="fill:#2A2A2C;" width="92.1" height="16.33"/>
<rect x="237.91" y="269.91" style="fill:#57555C;" width="110.19" height="16.324"/>
<rect x="256" y="269.91" style="fill:#2A2A2C;" width="92.1" height="16.33"/>
<rect x="237.91" y="345.62" style="fill:#57555C;" width="110.19" height="16.324"/>
<rect x="256" y="345.63" style="fill:#2A2A2C;" width="92.1" height="16.32"/>
<g>
</g>
<g>
</g>
<g>
</g>
<g>
</g>
<g>
</g>
<g>
</g>
<g>
</g>
<g>
</g>
<g>
</g>
<g>
</g>
<g>
</g>
<g>
</g>
<g>
</g>
<g>
</g>
<g>
</g>
</svg>
