<?xml version="1.0" encoding="iso-8859-1"?>
<!-- Generator: Adobe Illustrator 19.0.0, SVG Export Plug-In . SVG Version: 6.00 Build 0)  -->
<svg xmlns="http://www.w3.org/2000/svg" xmlns:xlink="http://www.w3.org/1999/xlink" version="1.1" id="Layer_1" x="0px" y="0px" viewBox="0 0 512 512" style="enable-background:new 0 0 512 512;" xml:space="preserve">
<circle style="fill:#83E46F;" cx="256" cy="256" r="256"/>
<path style="fill:#2AD827;" d="M511.424,273.012L283.263,44.479c-7.227-7.138-16.895-11.146-27.263-11.146  c-12.263,0-23.554,5.597-30.978,15.356L78.105,241.822v0.001v164.282c0,7.284,2.926,13.916,7.659,18.784l64.731,64.427  C182.666,503.886,218.385,512,256,512C391.667,512,502.666,406.463,511.424,273.012z"/>
<path style="fill:#FF4F19;" d="M433.895,276.599H78.105v-34.777L225.022,48.69c7.424-9.76,18.715-15.356,30.978-15.356  s23.554,5.597,30.978,15.356l146.917,193.132L433.895,276.599L433.895,276.599z M92.835,261.869h326.329v-15.081l-143.91-189.18  c-4.614-6.066-11.632-9.545-19.254-9.545c-7.622,0-14.64,3.479-19.254,9.545l-5.862-4.459l5.862,4.459L92.835,246.788V261.869z"/>
<path style="fill:#EE2600;" d="M286.98,48.69c-7.43-9.76-18.72-15.36-30.98-15.36v14.73c7.62,0,14.64,3.48,19.25,9.55l143.91,189.18  v15.08H256v14.73h177.89v-34.78L286.98,48.69z"/>
<path style="fill:#FF4F19;" d="M406.895,433.104h-301.79c-14.85,0-27-12.15-27-27V241.822h355.79v164.282  C433.895,420.954,421.745,433.104,406.895,433.104z"/>
<path style="fill:#EE2600;" d="M433.89,241.82V406.1c0,14.85-12.15,27-27,27H256V241.82H433.89z"/>
<path style="fill:#FF9A00;" d="M78.105,241.822v37.899l155.929,74.961c13.883,6.674,30.048,6.674,43.932,0l155.929-74.961v-37.899  H78.105z"/>
<path style="fill:#E67500;" d="M433.89,241.82v37.9l-155.92,74.96c-6.95,3.34-14.46,5.01-21.97,5.01V241.82H433.89z"/>
<path style="fill:#FFFFFF;" d="M306.6,351.356c0-7.417-4.57-13.757-11.043-16.385c2.719-6.435,1.467-14.15-3.777-19.395  c-5.244-5.244-12.959-6.497-19.395-3.777c-2.628-6.473-8.969-11.043-16.385-11.043c-7.417,0-13.757,4.57-16.385,11.043  c-6.436-2.719-14.15-1.467-19.395,3.777c-5.244,5.244-6.497,12.959-3.777,19.395c-6.473,2.628-11.043,8.969-11.043,16.385  c0,7.417,4.57,13.757,11.043,16.385c-2.719,6.436-1.467,14.15,3.777,19.395c5.244,5.244,12.959,6.497,19.395,3.777  c2.628,6.473,8.969,11.043,16.385,11.043c7.417,0,13.757-4.57,16.385-11.043c6.435,2.719,14.15,1.467,19.395-3.777  c5.244-5.244,6.497-12.959,3.777-19.395C302.03,365.113,306.6,358.772,306.6,351.356z"/>
<path style="fill:#E1E1E3;" d="M306.6,351.36c0-7.42-4.57-13.76-11.04-16.39c2.72-6.43,1.46-14.15-3.78-19.39  c-5.24-5.25-12.96-6.5-19.39-3.78c-2.63-6.47-8.97-11.04-16.39-11.04v101.2c7.42,0,13.76-4.57,16.39-11.05  c6.43,2.72,14.15,1.47,19.39-3.77c5.24-5.25,6.5-12.96,3.78-19.4C302.03,365.11,306.6,358.77,306.6,351.36z"/>
<circle style="fill:#FF9A00;" cx="256" cy="351.36" r="24.03"/>
<path style="fill:#E67500;" d="M280.03,351.36c0,13.27-10.76,24.03-24.03,24.03v-48.06C269.27,327.33,280.03,338.08,280.03,351.36z"/>
<g>
</g>
<g>
</g>
<g>
</g>
<g>
</g>
<g>
</g>
<g>
</g>
<g>
</g>
<g>
</g>
<g>
</g>
<g>
</g>
<g>
</g>
<g>
</g>
<g>
</g>
<g>
</g>
<g>
</g>
</svg>
