<?xml version="1.0" encoding="iso-8859-1"?>
<!-- Generator: Adobe Illustrator 19.0.0, SVG Export Plug-In . SVG Version: 6.00 Build 0)  -->
<svg xmlns="http://www.w3.org/2000/svg" xmlns:xlink="http://www.w3.org/1999/xlink" version="1.1" id="Layer_1" x="0px" y="0px" viewBox="0 0 512 512" style="enable-background:new 0 0 512 512;" xml:space="preserve">
<circle style="fill:#FF4F19;" cx="256" cy="256" r="256"/>
<path style="fill:#EE2600;" d="M512,256c0-0.747-0.022-1.488-0.028-2.233L289.54,31.335h-67.08v16.856  c-0.012,2.735-0.661,76.426-35.635,76.426c-35.636,0-53.453,0-53.453,0v63.935c0,0,37.732,69.183,37.732,100.626  c0,63.228-42.448,90.129-42.448,148.823l66.771,66.771C214.848,509.484,235.129,512,256,512C397.385,512,512,397.385,512,256z"/>
<path style="fill:#FF9A00;" d="M229,418.5v92.084c8.874,0.93,17.88,1.416,27,1.416s18.126-0.486,27-1.416V418.5H229z"/>
<path style="fill:#E67500;" d="M283,418.5v92.08c-8.87,0.93-17.88,1.42-27,1.42v-93.5H283z"/>
<path style="fill:#FFFFFF;" d="M340.897,289.177c0-31.443,37.732-100.626,37.732-100.626v-63.935c0,0-17.818,0-53.453,0  c-35.636,0-35.636-76.512-35.636-76.512h-67.08c0,0,0,76.512-35.636,76.512s-53.453,0-53.453,0v63.935  c0,0,37.732,69.183,37.732,100.626c0,63.228-42.448,90.129-42.448,148.823h254.69C383.345,379.306,340.897,352.405,340.897,289.177z  "/>
<path style="fill:#E1E1E3;" d="M383.34,438H256V48.1h33.54c0,0,0,76.52,35.63,76.52c35.64,0,53.46,0,53.46,0v63.93  c0,0-37.73,69.18-37.73,100.63C340.9,352.4,383.34,379.31,383.34,438z"/>
<rect x="222.46" y="31.34" style="fill:#FF9A00;" width="67.08" height="16.862"/>
<rect x="256" y="31.33" style="fill:#E67500;" width="33.54" height="16.87"/>
<g>
</g>
<g>
</g>
<g>
</g>
<g>
</g>
<g>
</g>
<g>
</g>
<g>
</g>
<g>
</g>
<g>
</g>
<g>
</g>
<g>
</g>
<g>
</g>
<g>
</g>
<g>
</g>
<g>
</g>
</svg>
