<?xml version="1.0" encoding="iso-8859-1"?>
<!-- Generator: Adobe Illustrator 19.0.0, SVG Export Plug-In . SVG Version: 6.00 Build 0)  -->
<svg xmlns="http://www.w3.org/2000/svg" xmlns:xlink="http://www.w3.org/1999/xlink" version="1.1" id="Layer_1" x="0px" y="0px" viewBox="0 0 512 512" style="enable-background:new 0 0 512 512;" xml:space="preserve">
<circle style="fill:#0088FF;" cx="256" cy="256" r="256"/>
<path style="fill:#005ED3;" d="M512,256c0-19.806-2.252-39.086-6.509-57.6L391.425,84.333h-270.85v46.129l0,0l-33,288.038  l76.471,76.471C192.587,505.961,223.586,512,256,512C397.385,512,512,397.385,512,256z"/>
<polygon style="fill:#FFED97;" points="391.426,130.462 256,126.75 120.574,130.462 87.575,418.5 424.425,418.5 "/>
<g>
	<polygon style="fill:#FFDB2D;" points="424.42,418.5 256,418.5 256,126.75 391.43,130.46  "/>
	<polygon style="fill:#FFDB2D;" points="211.962,124.787 211.962,418.5 152.338,418.5 188.018,126.279  "/>
</g>
<polygon style="fill:#FDC000;" points="359.661,418.5 300.037,418.5 300.037,124.787 323.981,126.279 "/>
<rect x="120.57" y="84.33" style="fill:#FFFFFF;" width="270.85" height="46.13"/>
<rect x="256" y="84.33" style="fill:#E1E1E3;" width="135.42" height="46.13"/>
<g>
</g>
<g>
</g>
<g>
</g>
<g>
</g>
<g>
</g>
<g>
</g>
<g>
</g>
<g>
</g>
<g>
</g>
<g>
</g>
<g>
</g>
<g>
</g>
<g>
</g>
<g>
</g>
<g>
</g>
</svg>
