<?xml version="1.0" encoding="iso-8859-1"?>
<!-- Generator: Adobe Illustrator 19.0.0, SVG Export Plug-In . SVG Version: 6.00 Build 0)  -->
<svg xmlns="http://www.w3.org/2000/svg" xmlns:xlink="http://www.w3.org/1999/xlink" version="1.1" id="Layer_1" x="0px" y="0px" viewBox="0 0 512 512" style="enable-background:new 0 0 512 512;" xml:space="preserve">
<circle style="fill:#0088FF;" cx="256" cy="256" r="256"/>
<path style="fill:#005ED3;" d="M512,256c0-12.318-0.889-24.426-2.571-36.279L368.815,78.527  c-7.613-8.375-19.822-12.037-31.419-7.973l-16.112,5.647c-8.088,2.835-16.815,1.927-24.017-2.106l-19.039-19.394  c-11.697-13.606-32.763-13.606-44.46,0l-11.13,12.946c-7.867,9.151-20.538,12.546-31.926,8.555L174.6,70.555  c-16.933-5.935-35.177,4.598-38.504,22.23l-3.166,16.777c-2.238,11.858-11.513,21.134-23.372,23.372L92.781,136.1  c-17.632,3.327-28.165,21.57-22.23,38.504l5.647,16.112c3.991,11.388,0.596,24.059-8.555,31.926l-12.946,11.13  c-13.606,11.697-13.606,32.763,0,44.46l19.394,19.039c4.033,7.202,4.941,15.929,2.106,24.017L70.55,337.4  c-3.892,11.106-0.699,22.772,6.933,30.427l142.306,141.615C231.623,511.114,243.707,512,256,512C397.385,512,512,397.385,512,256z"/>
<path style="fill:#FFDB2D;" d="M278.228,54.701l11.13,12.946c7.867,9.151,20.538,12.546,31.926,8.555l16.112-5.647  c16.933-5.935,35.177,4.598,38.504,22.23l3.166,16.777c2.238,11.858,11.513,21.134,23.372,23.372l16.776,3.166  c17.632,3.327,28.165,21.57,22.23,38.504l-5.647,16.112c-3.991,11.388-0.596,24.059,8.555,31.926l12.946,11.13  c13.606,11.697,13.606,32.763,0,44.46l-12.946,11.13c-9.151,7.867-12.546,20.538-8.555,31.926l5.647,16.112  c5.935,16.933-4.598,35.177-22.23,38.504l-16.776,3.166c-11.858,2.238-21.134,11.513-23.372,23.372l-3.166,16.777  c-3.327,17.632-21.57,28.165-38.504,22.23l-16.112-5.647c-11.388-3.991-24.059-0.596-31.926,8.555l-11.13,12.946  c-11.697,13.606-32.763,13.606-44.46,0l-11.13-12.946c-7.867-9.151-20.538-12.546-31.926-8.555l-16.112,5.647  c-16.933,5.935-35.177-4.598-38.504-22.23l-3.166-16.777c-2.238-11.858-11.513-21.134-23.372-23.372l-16.777-3.166  c-17.632-3.327-28.165-21.57-22.23-38.504l5.647-16.112c3.991-11.388,0.596-24.059-8.555-31.926l-12.946-11.13  c-13.606-11.697-13.606-32.763,0-44.46l12.946-11.13c9.151-7.867,12.546-20.538,8.555-31.926l-5.647-16.112  c-5.935-16.933,4.598-35.177,22.23-38.504l16.777-3.166c11.858-2.238,21.134-11.513,23.372-23.372l3.166-16.777  c3.327-17.632,21.57-28.165,38.504-22.23l16.112,5.647c11.388,3.991,24.059,0.596,31.926-8.555l11.13-12.946  C245.465,41.095,266.531,41.095,278.228,54.701z"/>
<path style="fill:#FDC000;" d="M457.298,278.23l-12.95,11.13c-9.15,7.87-12.54,20.54-8.55,31.93l5.65,16.11  c5.93,16.93-4.6,35.17-22.23,38.5l-16.78,3.17c-11.86,2.23-21.14,11.51-23.37,23.37l-3.17,16.78c-3.33,17.63-21.57,28.16-38.5,22.23  l-16.11-5.65c-11.39-3.99-24.06-0.6-31.93,8.55l-11.13,12.95c-5.85,6.8-14.04,10.21-22.23,10.21V44.49  c8.19,0,16.38,3.41,22.23,10.21l11.13,12.95c7.87,9.15,20.54,12.54,31.93,8.55l16.11-5.65c16.93-5.93,35.17,4.6,38.5,22.23  l3.17,16.78c2.23,11.86,11.51,21.14,23.37,23.37l16.78,3.17c17.63,3.33,28.16,21.57,22.23,38.5l-5.65,16.11  c-3.99,11.39-0.6,24.06,8.55,31.93l12.95,11.13C470.908,245.47,470.908,266.53,457.298,278.23z"/>
<path style="fill:#FFFFFF;" d="M255.998,409.996c-84.914,0-153.996-69.082-153.996-153.996s69.082-153.996,153.996-153.996  S409.995,171.086,409.995,256S340.912,409.996,255.998,409.996z M255.998,114.004c-78.297,0-141.996,63.699-141.996,141.996  s63.699,141.996,141.996,141.996S397.995,334.297,397.995,256S334.296,114.004,255.998,114.004z"/>
<path style="fill:#E1E1E3;" d="M409.995,256c0-84.914-69.082-153.996-153.997-153.996v12c78.297,0,141.997,63.699,141.997,141.996  s-63.699,141.996-141.997,141.996v12C340.912,409.996,409.995,340.914,409.995,256z"/>
<g>
	<path style="fill:#E67500;" d="M157.736,246.246v44.38h-13.461v-69.252h10.437l36.089,45.453v-45.355h13.46v69.154h-10.925   L157.736,246.246z"/>
	<path style="fill:#E67500;" d="M261.46,278.823v11.803h-48.086v-69.252h47.208v11.803h-33.748v16.678h29.164v10.925h-29.164v18.044   h34.626V278.823z"/>
</g>
<g>
	<path style="fill:#C06200;" d="M256,278.82v11.81h5.46v-11.81H256z M260.58,221.37H256v11.81h4.58V221.37z"/>
	<path style="fill:#C06200;" d="M296.031,221.569h12.387l7.803,22.922l7.803-22.922h12.485l-11.803,31.505l8.779,22.141   l19.605-53.841h14.63l-28.188,69.252h-11.315L316.22,261.56l-11.997,29.066h-11.314l-27.993-69.252h14.435l19.703,53.841   l8.584-22.141L296.031,221.569z"/>
</g>
<g>
</g>
<g>
</g>
<g>
</g>
<g>
</g>
<g>
</g>
<g>
</g>
<g>
</g>
<g>
</g>
<g>
</g>
<g>
</g>
<g>
</g>
<g>
</g>
<g>
</g>
<g>
</g>
<g>
</g>
</svg>
