<?xml version="1.0" encoding="iso-8859-1"?>
<!-- Generator: Adobe Illustrator 19.0.0, SVG Export Plug-In . SVG Version: 6.00 Build 0)  -->
<svg xmlns="http://www.w3.org/2000/svg" xmlns:xlink="http://www.w3.org/1999/xlink" version="1.1" id="Layer_1" x="0px" y="0px" viewBox="0 0 512 512" style="enable-background:new 0 0 512 512;" xml:space="preserve">
<circle style="fill:#FF4F19;" cx="256" cy="256" r="256"/>
<path style="fill:#EE2600;" d="M512,256c0-14.714-1.259-29.132-3.643-43.167l-176.499-176.5h-27.475v53.524h-47.544l-49.222-53.524  h-27.475v53.524h-5.631c-8.27,0-15.037,6.766-15.037,15.037v35.79c0,4.685,2.175,8.878,5.563,11.636l10.242,9.607l13.498,85.009  c0,0-69.614,124.525-69.614,199.185l51.176,51.176C197.125,506.807,225.954,512,256,512C397.385,512,512,397.385,512,256z"/>
<path style="fill:#FFFFFF;" d="M323.222,246.936l15.155-95.445H173.623l15.155,95.445c0,0-69.614,124.525-69.614,199.185h273.672  C392.836,371.462,323.222,246.936,323.222,246.936z"/>
<path style="fill:#E1E1E3;" d="M392.835,446.12H256V151.497h82.373l-15.154,95.445C323.219,246.942,392.835,371.466,392.835,446.12z  "/>
<path style="fill:#FFDB2D;" d="M337.489,89.857h-5.631V36.333h-27.475v53.524h-96.766V36.333h-27.475v53.524h-5.631  c-8.27,0-15.037,6.766-15.037,15.037v35.79c0,8.27,6.767,15.037,15.037,15.037h162.977c8.27,0,15.037-6.767,15.037-15.037v-35.79  C352.525,96.624,345.759,89.857,337.489,89.857z"/>
<path style="fill:#FDC000;" d="M337.489,89.857h-5.631V36.333h-27.475v53.524H256v65.864h81.489c8.27,0,15.037-6.766,15.037-15.037  v-35.79C352.525,96.624,345.759,89.857,337.489,89.857z"/>
<g>
</g>
<g>
</g>
<g>
</g>
<g>
</g>
<g>
</g>
<g>
</g>
<g>
</g>
<g>
</g>
<g>
</g>
<g>
</g>
<g>
</g>
<g>
</g>
<g>
</g>
<g>
</g>
<g>
</g>
</svg>
