<?xml version="1.0" encoding="iso-8859-1"?>
<!-- Generator: Adobe Illustrator 19.0.0, SVG Export Plug-In . SVG Version: 6.00 Build 0)  -->
<svg xmlns="http://www.w3.org/2000/svg" xmlns:xlink="http://www.w3.org/1999/xlink" version="1.1" id="Layer_1" x="0px" y="0px" viewBox="0 0 512 512" style="enable-background:new 0 0 512 512;" xml:space="preserve">
<circle style="fill:#0088FF;" cx="256" cy="256" r="256"/>
<path style="fill:#005ED3;" d="M512,256c0-19.663-2.223-38.805-6.421-57.195l-92.208-92.208C373.833,64.963,317.95,39,256,39  C136.154,39,39,136.154,39,256c0,61.949,25.962,117.832,67.596,157.371l92.208,92.208C217.195,509.777,236.337,512,256,512  C397.385,512,512,397.385,512,256z"/>
<circle style="fill:#FFFFFF;" cx="256" cy="256" r="217"/>
<path style="fill:#E1E1E3;" d="M473,256c0,119.85-97.15,217-217,217V39C375.85,39,473,136.15,473,256z"/>
<circle style="fill:#00C379;" cx="256" cy="256" r="175"/>
<path style="fill:#00A753;" d="M431,256c0,96.65-78.35,175-175,175V81C352.65,81,431,159.35,431,256z"/>
<polygon style="fill:#FFFFFF;" points="225.215,363.513 108.262,246.559 150.688,204.133 225.215,278.659 350.775,153.1   393.201,195.525 "/>
<polygon style="fill:#E1E1E3;" points="393.2,195.53 256,332.72 256,247.87 350.78,153.1 "/>
<g>
</g>
<g>
</g>
<g>
</g>
<g>
</g>
<g>
</g>
<g>
</g>
<g>
</g>
<g>
</g>
<g>
</g>
<g>
</g>
<g>
</g>
<g>
</g>
<g>
</g>
<g>
</g>
<g>
</g>
</svg>
