<?xml version="1.0" encoding="iso-8859-1"?>
<!-- Generator: Adobe Illustrator 19.0.0, SVG Export Plug-In . SVG Version: 6.00 Build 0)  -->
<svg xmlns="http://www.w3.org/2000/svg" xmlns:xlink="http://www.w3.org/1999/xlink" version="1.1" id="Layer_1" x="0px" y="0px" viewBox="0 0 512 512" style="enable-background:new 0 0 512 512;" xml:space="preserve">
<circle style="fill:#83E46F;" cx="256" cy="256" r="256"/>
<path style="fill:#2AD827;" d="M512,256c0-1.117-0.028-2.227-0.042-3.341L318.759,59.461c-7.075-9.402-18.325-15.483-30.998-15.483  c-21.413,0-38.771,17.359-38.771,38.772c0,1.328,0.067,2.641,0.198,3.935L236.596,74.6c-7.075-9.402-18.325-15.483-30.998-15.483  c-21.413,0-38.772,17.359-38.772,38.772c0,12.672,6.081,23.923,15.483,30.997l25.595,26.085c-4.406,6.291-6.999,13.945-6.999,22.208  c0,1.343,0.075,2.668,0.21,3.975l-43.989-48.945l-30.145,67.885c-24.757,14.125-44.007,36.901-53.565,64.136H58.333  c-7.554,0-13.735,6.181-13.735,13.735v50.574c0,4.001,1.736,7.612,4.492,10.126l172.444,171.017C232.809,511.2,244.31,512,256,512  C397.385,512,512,397.385,512,256z"/>
<path style="fill:#FF4F19;" d="M445.917,250.783c-16.144-6.686-32.628-1.783-43.04,3.067  c-18.83-40.782-60.159-69.265-107.823-69.265H185.445c-0.301,0-0.6,0.009-0.9,0.011l-27.418-52.387l-30.145,67.885  c-24.757,14.125-44.007,36.901-53.565,64.136H58.333c-7.554,0-13.735,6.181-13.735,13.735v50.574  c0,7.554,6.181,13.735,13.735,13.735h15.083c14.265,40.644,50.118,71.36,93.63,78.207v15.723c0,7.252,5.933,13.185,13.185,13.185  h8.79c7.252,0,13.185-5.933,13.185-13.185V421.92h68.674v14.284c0,7.252,5.933,13.185,13.185,13.185h8.79  c7.252,0,13.185-5.933,13.185-13.185v-14.801c60.167-5.591,107.68-56.587,107.68-118.151l0,0c0-13.317-2.225-26.138-6.318-38.114  c7.491-3.542,19.068-7.331,30.38-4.304c-8.895,14.695-10.438,33.925-6.226,46.388c2.97,8.785,8.589,14.334,15.82,15.622  c1.7,0.303,3.359,0.36,4.958,0.184c6.479-0.717,11.971-5.275,15.212-12.879c6.637-15.578,3.335-40.707-10.664-52.752  c7.111-5.111,15.995-6.399,26.498-3.823l2.877-11.74C466.703,237.042,453.796,243.493,445.917,250.783z M456.429,305.411  c-2.68,6.29-5.877,5.721-6.93,5.535c-3.633-0.647-5.627-5.036-6.49-7.594c-3.291-9.733-1.825-25.569,5.625-37.102  C458.498,274.286,461.218,294.173,456.429,305.411z"/>
<path style="fill:#FF3200;" d="M445.92,250.785c-16.152-6.687-32.635-1.789-43.048,3.067  c-18.825-40.78-60.159-69.262-107.817-69.262h-55.378v237.334h31.208v14.278c0,7.251,5.931,13.192,13.181,13.192h8.795  c7.251,0,13.182-5.941,13.182-13.192v-14.8c60.169-5.59,107.679-56.581,107.679-118.145c0-6.665-0.554-13.192-1.618-19.56  c-1.075-6.367-2.651-12.575-4.695-18.559c7.485-3.546,19.059-7.326,30.378-4.302c-8.901,14.694-10.435,33.923-6.229,46.381  c2.971,8.795,8.593,14.342,15.822,15.631c1.703,0.298,3.354,0.351,4.962,0.181c6.474-0.713,11.968-5.281,15.205-12.884  c6.644-15.577,3.343-40.706-10.658-52.748c7.113-5.111,15.993-6.399,26.491-3.822l2.886-11.744  C466.704,237.039,453.8,243.492,445.92,250.785z M456.43,305.407c-2.683,6.293-5.878,5.728-6.932,5.537  c-3.631-0.649-5.622-5.036-6.484-7.592c-3.29-9.732-1.831-25.565,5.622-37.107C458.495,274.284,461.221,294.174,456.43,305.407z"/>
<circle style="fill:#2A2A2C;" cx="151.16" cy="264.23" r="15.78"/>
<rect x="195.93" y="209.31" style="fill:#EE2600;" width="87.49" height="15.932"/>
<rect x="239.68" y="209.3" style="fill:#A01700;" width="43.751" height="15.939"/>
<circle style="fill:#FFDB2D;" cx="205.6" cy="97.89" r="38.772"/>
<path style="fill:#FDC000;" d="M244.369,97.889c0,21.413-17.358,38.771-38.771,38.771V59.118  C227.012,59.118,244.369,76.476,244.369,97.889z"/>
<path style="fill:#FF9A00;" d="M205.599,64.425c-18.452,0-33.464,15.012-33.464,33.464s15.012,33.464,33.464,33.464  s33.464-15.012,33.464-33.464C239.062,79.437,224.05,64.425,205.599,64.425z M205.599,127.031  c-16.069,0-29.143-13.073-29.143-29.142s13.073-29.143,29.143-29.143c16.069,0,29.142,13.073,29.142,29.143  C234.741,113.958,221.668,127.031,205.599,127.031z"/>
<path style="fill:#E67500;" d="M205.599,64.424v4.321c16.069,0,29.143,13.074,29.143,29.143s-13.074,29.143-29.143,29.143v4.321  c18.451,0,33.464-15.013,33.464-33.464S224.05,64.424,205.599,64.424z"/>
<circle style="fill:#FFDB2D;" cx="287.76" cy="82.75" r="38.772"/>
<path style="fill:#FDC000;" d="M326.533,82.749c0,21.413-17.358,38.771-38.771,38.771V43.978  C309.175,43.978,326.533,61.336,326.533,82.749z"/>
<path style="fill:#FF9A00;" d="M287.762,49.285c-18.452,0-33.463,15.012-33.463,33.464s15.012,33.464,33.463,33.464  c18.452,0,33.464-15.012,33.464-33.464S306.214,49.285,287.762,49.285z M287.762,111.891c-16.069,0-29.142-13.073-29.142-29.142  s13.073-29.142,29.142-29.142s29.143,13.073,29.143,29.142C316.904,98.818,303.831,111.891,287.762,111.891z"/>
<path style="fill:#E67500;" d="M287.762,49.285v4.321c16.069,0,29.143,13.074,29.143,29.143s-13.074,29.143-29.143,29.143v4.321  c18.451,0,33.464-15.013,33.464-33.464C321.226,64.298,306.213,49.285,287.762,49.285z"/>
<circle style="fill:#FFDB2D;" cx="239.68" cy="177.18" r="38.772"/>
<path style="fill:#FDC000;" d="M278.448,177.18c0,21.413-17.358,38.771-38.771,38.771V138.41  C261.09,138.409,278.448,155.767,278.448,177.18z"/>
<path style="fill:#FF9A00;" d="M239.677,143.716c-18.452,0-33.464,15.012-33.464,33.464s15.012,33.464,33.464,33.464  s33.464-15.012,33.464-33.464S258.129,143.716,239.677,143.716z M239.677,206.322c-16.069,0-29.142-13.073-29.142-29.143  c0-16.069,13.073-29.142,29.142-29.142s29.142,13.073,29.142,29.142C268.82,193.249,255.747,206.322,239.677,206.322z"/>
<path style="fill:#E67500;" d="M239.677,143.715v4.321c16.069,0,29.143,13.074,29.143,29.143s-13.074,29.143-29.143,29.143v4.321  c18.451,0,33.464-15.013,33.464-33.464C273.142,158.729,258.129,143.715,239.677,143.715z"/>
<g>
</g>
<g>
</g>
<g>
</g>
<g>
</g>
<g>
</g>
<g>
</g>
<g>
</g>
<g>
</g>
<g>
</g>
<g>
</g>
<g>
</g>
<g>
</g>
<g>
</g>
<g>
</g>
<g>
</g>
</svg>
