<?xml version="1.0" encoding="iso-8859-1"?>
<!-- Generator: Adobe Illustrator 19.0.0, SVG Export Plug-In . SVG Version: 6.00 Build 0)  -->
<svg xmlns="http://www.w3.org/2000/svg" xmlns:xlink="http://www.w3.org/1999/xlink" version="1.1" id="Layer_1" x="0px" y="0px" viewBox="0 0 512 512" style="enable-background:new 0 0 512 512;" xml:space="preserve">
<circle style="fill:#CAE8F9;" cx="256" cy="256" r="256"/>
<path style="fill:#84CAFF;" d="M512,256c0-28.526-4.671-55.96-13.281-81.585l-23.38-23.38L379.15,88.907  c-7.814-4.947-16.872-7.573-26.121-7.573H158.971c-9.248,0-18.307,2.626-26.121,7.573l-96.188,62.128l61.404,94.408l40.626,40.626  l0.31-0.147v163.164l55.446,55.446C214.166,509.4,234.778,512,256,512C397.385,512,512,397.385,512,256z"/>
<path style="fill:#0088FF;" d="M379.15,88.907c-7.814-4.947-16.872-7.573-26.121-7.573H158.971c-9.248,0-18.307,2.626-26.121,7.573  l-96.188,62.128l61.404,94.408l40.936-19.362v223.005H373V226.081l40.936,19.362l61.404-94.408L379.15,88.907z"/>
<g>
	<path style="fill:#006EF5;" d="M475.34,151.03l-61.41,94.41L373,226.08v223.01H256V81.33h97.03c9.25,0,18.31,2.63,26.12,7.58   L475.34,151.03z"/>
	<path style="fill:#006EF5;" d="M307.522,81.33c0,30.319-23.072,54.9-51.522,54.9s-51.522-24.581-51.522-54.9   C204.478,81.33,307.522,81.33,307.522,81.33z"/>
</g>
<path style="fill:#005ED3;" d="M307.52,81.33c0,30.32-23.07,54.9-51.52,54.9v-54.9C256,81.33,307.52,81.33,307.52,81.33z"/>
<path style="fill:#FFFFFF;" d="M307.522,81.33c0,30.319-23.072,54.9-51.522,54.9s-51.522-24.581-51.522-54.9h-13.117  c0,38.045,28.941,68.879,64.639,68.879s64.639-30.834,64.639-68.879L307.522,81.33L307.522,81.33z"/>
<path style="fill:#E1E1E3;" d="M320.64,81.33c0,38.05-28.94,68.88-64.64,68.88v-13.98c28.45,0,51.52-24.58,51.52-54.9  C307.52,81.33,320.64,81.33,320.64,81.33z"/>
<polygon style="fill:#FFFFFF;" points="131.94,229.42 114.74,237.56 51.75,141.28 67.59,131.06 "/>
<polygon style="fill:#E1E1E3;" points="460.25,141.28 397.26,237.56 380.06,229.42 444.41,131.06 "/>
<circle style="fill:#FFFFFF;" cx="256" cy="287" r="76"/>
<path style="fill:#E1E1E3;" d="M332,287c0,41.97-34.03,76-76,76V211C297.97,211,332,245.03,332,287z"/>
<g>
</g>
<g>
</g>
<g>
</g>
<g>
</g>
<g>
</g>
<g>
</g>
<g>
</g>
<g>
</g>
<g>
</g>
<g>
</g>
<g>
</g>
<g>
</g>
<g>
</g>
<g>
</g>
<g>
</g>
</svg>
