<?xml version="1.0" encoding="iso-8859-1"?>
<!-- Generator: Adobe Illustrator 19.0.0, SVG Export Plug-In . SVG Version: 6.00 Build 0)  -->
<svg xmlns="http://www.w3.org/2000/svg" xmlns:xlink="http://www.w3.org/1999/xlink" version="1.1" id="Layer_1" x="0px" y="0px" viewBox="0 0 512 512" style="enable-background:new 0 0 512 512;" xml:space="preserve">
<circle style="fill:#FFED97;" cx="256" cy="256" r="256"/>
<path style="fill:#FFDB2D;" d="M510.226,286.129L276.094,51.37c-5.242-5.591-12.362-8.783-20.094-8.783  c-10.258,0-19.453,5.605-24.597,14.994l-85.327,155.726H93.133c-19.804,0-36.007,16.203-36.007,36.007v127.748  c0,9.821,3.986,18.756,10.42,25.268l90.667,90.311C188.344,505.107,221.365,512,256,512C387.19,512,495.312,413.313,510.226,286.129  z"/>
<path style="fill:#0088FF;" d="M343.553,225.846L258.108,69.905c-0.343-0.625-1.071-1.674-2.108-1.674s-1.766,1.049-2.108,1.673  l-85.445,155.942l-22.489-12.323l85.445-155.941c5.144-9.389,14.339-14.994,24.597-14.994c10.258,0,19.453,5.605,24.597,14.995  l85.445,155.94L343.553,225.846z"/>
<path style="fill:#006EF5;" d="M366.04,213.52l-22.49,12.33L258.11,69.91c-0.34-0.63-1.07-1.68-2.11-1.68V42.59  c10.26,0,19.45,5.6,24.6,14.99L366.04,213.52z"/>
<path style="fill:#FFFFFF;" d="M418.867,413.069H93.133c-19.804,0-36.007-16.203-36.007-36.007V249.315  c0-19.804,16.203-36.007,36.007-36.007h325.735c19.804,0,36.007,16.203,36.007,36.007v127.748  C454.874,396.866,438.671,413.069,418.867,413.069z"/>
<path style="fill:#E1E1E3;" d="M454.87,249.31v127.75c0,19.81-16.2,36.01-36,36.01H256V213.31h162.87  C438.67,213.31,454.87,229.51,454.87,249.31z"/>
<path style="fill:#00C379;" d="M411.1,390.878H100.9c-11.33,0-20.6-9.27-20.6-20.6V256.1c0-11.33,9.27-20.6,20.6-20.6h310.2  c11.33,0,20.6,9.27,20.6,20.6v114.177C431.7,381.607,422.43,390.878,411.1,390.878z"/>
<path style="fill:#00A753;" d="M431.7,256.1v114.18c0,11.33-9.27,20.6-20.6,20.6H256V235.5h155.1  C422.43,235.5,431.7,244.77,431.7,256.1z"/>
<g>
	<path style="fill:#FFFFFF;" d="M148.735,351.476c-5.531,0-10.548-1.08-15.049-3.243c-4.503-2.163-8.367-5.034-11.593-8.615   c-3.227-3.579-5.726-7.675-7.498-12.285c-1.773-4.608-2.659-9.322-2.659-14.145c0-5.034,0.939-9.855,2.818-14.465   c1.878-4.608,4.467-8.685,7.764-12.231c3.297-3.545,7.214-6.363,11.753-8.456c4.537-2.091,9.466-3.137,14.783-3.137   c5.459,0,10.439,1.116,14.943,3.351c4.502,2.233,8.349,5.158,11.54,8.774s5.672,7.729,7.445,12.338   c1.772,4.609,2.659,9.289,2.659,14.038c0,5.035-0.923,9.838-2.765,14.411c-1.845,4.574-4.397,8.615-7.658,12.124   c-3.262,3.511-7.162,6.312-11.699,8.403C158.98,350.431,154.053,351.476,148.735,351.476z M126.826,313.189   c0,3.262,0.495,6.418,1.489,9.465c0.992,3.05,2.428,5.744,4.307,8.083c1.878,2.34,4.183,4.22,6.913,5.637   c2.729,1.42,5.831,2.127,9.306,2.127c3.545,0,6.682-0.726,9.413-2.18c2.729-1.452,5.033-3.385,6.913-5.796   c1.878-2.41,3.297-5.122,4.254-8.136c0.957-3.014,1.436-6.079,1.436-9.2c0-3.261-0.515-6.417-1.542-9.466   c-1.029-3.048-2.483-5.744-4.36-8.083c-1.88-2.34-4.185-4.201-6.913-5.584c-2.73-1.382-5.796-2.074-9.2-2.074   c-3.546,0-6.7,0.728-9.466,2.18c-2.765,1.454-5.07,3.369-6.913,5.743c-1.844,2.377-3.244,5.071-4.201,8.083   C127.304,307.003,126.826,310.07,126.826,313.189z"/>
	<path style="fill:#FFFFFF;" d="M196.914,350.945v-75.512h32.013c3.473,0,6.682,0.728,9.625,2.18   c2.942,1.454,5.478,3.368,7.605,5.743c2.127,2.377,3.792,5.071,4.999,8.083c1.205,3.014,1.808,6.046,1.808,9.093   c0,3.191-0.568,6.293-1.702,9.307c-1.135,3.014-2.73,5.69-4.786,8.029c-2.057,2.34-4.538,4.22-7.445,5.637   c-2.908,1.42-6.099,2.127-9.572,2.127h-17.868v25.313H196.914z M211.591,312.764h17.017c2.694,0,4.945-1.099,6.754-3.297   c1.808-2.197,2.712-5.175,2.712-8.934c0-1.914-0.284-3.633-0.851-5.158c-0.568-1.524-1.313-2.818-2.233-3.882   c-0.923-1.063-2.004-1.861-3.244-2.393c-1.241-0.531-2.5-0.798-3.776-0.798h-16.379V312.764z"/>
</g>
<g>
	<path style="fill:#E1E1E3;" d="M315.605,338.076v12.869h-52.433v-75.512h51.476v12.869h-36.799v18.187h31.801v11.912h-31.801   v19.675L315.605,338.076L315.605,338.076z"/>
	<path style="fill:#E1E1E3;" d="M341.768,302.553v48.392h-14.677v-75.512h11.38l39.352,49.562v-49.456H392.5v75.406h-11.912   L341.768,302.553z"/>
</g>
<g>
</g>
<g>
</g>
<g>
</g>
<g>
</g>
<g>
</g>
<g>
</g>
<g>
</g>
<g>
</g>
<g>
</g>
<g>
</g>
<g>
</g>
<g>
</g>
<g>
</g>
<g>
</g>
<g>
</g>
</svg>
