<?xml version="1.0" encoding="iso-8859-1"?>
<!-- Generator: Adobe Illustrator 19.0.0, SVG Export Plug-In . SVG Version: 6.00 Build 0)  -->
<svg xmlns="http://www.w3.org/2000/svg" xmlns:xlink="http://www.w3.org/1999/xlink" version="1.1" id="Layer_1" x="0px" y="0px" viewBox="0 0 512 512" style="enable-background:new 0 0 512 512;" xml:space="preserve">
<circle style="fill:#FF4F19;" cx="256" cy="256" r="256"/>
<path style="fill:#EE2600;" d="M512,256c0-12.293-0.886-24.378-2.561-36.208L354.058,64.411  c-7.141-10.884-20.145-17.225-33.828-15.236l-6.43,0.935c-10.626,1.545-21.367-1.945-29.056-9.441l-4.653-4.536  c-13.403-13.066-34.779-13.066-48.181,0l-4.653,4.536c-7.689,7.496-18.429,10.986-29.056,9.441l-6.43-0.935  c-18.523-2.693-35.817,9.871-38.979,28.32l-1.098,6.405c-1.814,10.584-8.452,19.72-17.957,24.716l-5.752,3.023  c-16.569,8.709-23.174,29.039-14.889,45.823l2.876,5.827c4.753,9.629,4.753,20.922,0,30.551l-2.876,5.827  c-7.791,15.785-2.411,34.701,12.037,44.143l26.034,26.954l2.923,14.027l-64.96,152.33l42.884,42.884  C168.748,500.382,211.014,512,256,512C397.385,512,512,397.385,512,256z"/>
<polygon style="fill:#0088FF;" points="169.357,248.987 89.129,437.121 153.6,424.188 188.897,479.667 269.126,291.532 "/>
<polygon style="fill:#006EF5;" points="342.643,248.987 422.871,437.121 358.4,424.188 323.103,479.667 242.874,291.532 "/>
<path style="fill:#FFDB2D;" d="M280.091,36.133l4.653,4.536c7.689,7.496,18.429,10.986,29.056,9.441l6.431-0.935  c18.523-2.693,35.817,9.871,38.979,28.32l1.098,6.405c1.814,10.584,8.452,19.72,17.957,24.716l5.752,3.023  c16.569,8.709,23.174,29.039,14.889,45.823l-2.876,5.827c-4.753,9.629-4.753,20.922,0,30.551l2.876,5.827  c8.285,16.785,1.68,37.114-14.889,45.823l-5.752,3.023c-9.505,4.996-16.143,14.132-17.957,24.716l-1.098,6.405  c-3.163,18.449-20.456,31.013-38.979,28.32l-6.431-0.935c-10.627-1.545-21.367,1.945-29.056,9.441l-4.653,4.536  c-13.403,13.066-34.779,13.066-48.181,0l-4.653-4.536c-7.689-7.496-18.429-10.986-29.056-9.441l-6.43,0.935  c-18.523,2.693-35.817-9.871-38.98-28.32l-1.098-6.405c-1.814-10.584-8.452-19.72-17.958-24.716l-5.752-3.023  c-16.569-8.709-23.174-29.039-14.889-45.823l2.876-5.827c4.753-9.629,4.753-20.922,0-30.551l-2.876-5.827  c-8.285-16.785-1.68-37.114,14.889-45.823l5.752-3.023c9.505-4.996,16.143-14.132,17.958-24.716l1.098-6.405  c3.163-18.449,20.456-31.013,38.98-28.32l6.43,0.935c10.627,1.545,21.367-1.945,29.056-9.441l4.653-4.536  C245.312,23.067,266.688,23.067,280.091,36.133z"/>
<path style="fill:#FEC000;" d="M398.91,199.67c8.28,16.78,1.68,37.11-14.89,45.82l-5.76,3.02c-9.5,5-16.14,14.14-17.95,24.72  l-1.1,6.41c-3.16,18.44-20.46,31.01-38.98,28.32l-6.43-0.94c-10.63-1.54-21.37,1.95-29.06,9.44l-4.65,4.54  c-6.7,6.53-15.39,9.8-24.09,9.8V26.34c8.7,0,17.39,3.26,24.09,9.79l4.65,4.54c7.69,7.5,18.43,10.98,29.06,9.44l6.43-0.93  c18.52-2.7,35.82,9.87,38.98,28.32l1.1,6.4c1.81,10.58,8.45,19.72,17.95,24.72l5.76,3.02c16.57,8.71,23.17,29.04,14.89,45.82  l-2.88,5.83c-4.75,9.63-4.75,20.92,0,30.55L398.91,199.67z"/>
<circle style="fill:#FF9A00;" cx="256" cy="178.56" r="99.48"/>
<path style="fill:#E67500;" d="M355.48,178.57c0,54.94-44.54,99.48-99.48,99.48V79.08C310.94,79.08,355.48,123.62,355.48,178.57z"/>
<path style="fill:#FFDB2D;" d="M262.561,116.412l15.761,29.432c1.074,2.006,3.007,3.41,5.247,3.812l32.862,5.894  c5.849,1.049,8.17,8.193,4.055,12.479l-23.121,24.084c-1.576,1.641-2.314,3.914-2.004,6.168l4.549,33.075  c0.81,5.887-5.267,10.302-10.615,7.713l-30.051-14.547c-2.048-0.992-4.437-0.992-6.485,0l-30.05,14.547  c-5.349,2.589-11.425-1.826-10.616-7.713l4.549-33.075c0.31-2.254-0.428-4.527-2.004-6.168l-23.121-24.084  c-4.115-4.287-1.794-11.43,4.055-12.479l32.862-5.894c2.24-0.402,4.173-1.806,5.247-3.812l15.761-29.432  C252.245,111.173,259.755,111.173,262.561,116.412z"/>
<path style="fill:#FEC000;" d="M297.36,192.11c-1.57,1.65-2.31,3.92-2,6.17l4.55,33.08c0.81,5.88-5.27,10.3-10.62,7.71l-30.05-14.55  c-1.02-0.5-2.13-0.74-3.24-0.74v-111.3c2.58,0,5.16,1.31,6.56,3.93l15.76,29.43c1.08,2.01,3.01,3.41,5.25,3.82l32.86,5.89  c5.85,1.05,8.17,8.19,4.06,12.48L297.36,192.11z"/>
<g>
</g>
<g>
</g>
<g>
</g>
<g>
</g>
<g>
</g>
<g>
</g>
<g>
</g>
<g>
</g>
<g>
</g>
<g>
</g>
<g>
</g>
<g>
</g>
<g>
</g>
<g>
</g>
<g>
</g>
</svg>
