<?xml version="1.0" encoding="iso-8859-1"?>
<!-- Generator: Adobe Illustrator 19.0.0, SVG Export Plug-In . SVG Version: 6.00 Build 0)  -->
<svg xmlns="http://www.w3.org/2000/svg" xmlns:xlink="http://www.w3.org/1999/xlink" version="1.1" id="Layer_1" x="0px" y="0px" viewBox="0 0 512 512" style="enable-background:new 0 0 512 512;" xml:space="preserve">
<circle style="fill:#CAE8F9;" cx="256" cy="256" r="256"/>
<path style="fill:#84CAFF;" d="M512,256c0-14.739-1.263-29.181-3.654-43.238l-136.05-136.05  C343.207,45.708,301.869,26.333,256,26.333c-88.063,0-159.451,71.389-159.451,159.451c0,45.845,19.353,87.164,50.329,116.251  l62.018,62.13L256,485.667l25.106,25.106C410.707,498.156,512,388.913,512,256z"/>
<path style="fill:#0088FF;" d="M415.451,185.785c0-88.063-71.389-159.451-159.451-159.451S96.549,97.722,96.549,185.785  c0,67.303,41.699,124.863,100.67,148.263L256,485.667l58.781-151.62C373.752,310.647,415.451,253.087,415.451,185.785z"/>
<path style="fill:#006EF5;" d="M415.45,185.78c0,67.31-41.7,124.87-100.67,148.27L256,485.67V26.33  C344.06,26.33,415.45,97.72,415.45,185.78z"/>
<circle style="fill:#84CAFF;" cx="256" cy="185.78" r="131.78"/>
<path style="fill:#00A6FF;" d="M387.78,185.78c0,72.79-59,131.79-131.78,131.79V54C328.78,54,387.78,113,387.78,185.78z"/>
<circle style="fill:#FFFFFF;" cx="256" cy="185.78" r="114.78"/>
<path style="fill:#E1E1E3;" d="M370.78,185.78c0,63.4-51.39,114.79-114.78,114.79V71C319.39,71,370.78,122.39,370.78,185.78z"/>
<g>
	<path style="fill:#FF4F19;" d="M217.241,173.333c4.55,0,8.868-0.803,12.953-2.41c4.082-1.607,7.597-3.781,10.544-6.527   c2.943-2.743,5.287-5.956,7.029-9.64c1.738-3.681,2.611-7.663,2.611-11.949c0-4.148-0.872-8.099-2.611-11.848   c-1.742-3.747-4.086-6.96-7.029-9.64c-2.947-2.676-6.461-4.82-10.544-6.426c-4.086-1.606-8.403-2.41-12.953-2.41   c-4.688,0-9.037,0.803-13.054,2.41s-7.5,3.75-10.443,6.426c-2.947,2.68-5.291,5.893-7.029,9.64   c-1.742,3.749-2.611,7.7-2.611,11.848c0,4.287,0.869,8.269,2.611,11.949c1.738,3.684,4.082,6.897,7.029,9.64   c2.943,2.745,6.426,4.92,10.443,6.527C208.203,172.53,212.553,173.333,217.241,173.333z M204.086,136.381   c0.734-2.008,1.773-3.781,3.113-5.322c1.337-1.537,2.843-2.777,4.519-3.715c1.672-0.935,3.514-1.406,5.523-1.406   c3.882,0,7.23,1.641,10.042,4.921c2.811,3.282,4.217,7.264,4.217,11.949c0,2.278-0.37,4.453-1.104,6.527   c-0.738,2.077-1.776,3.885-3.113,5.422c-1.34,1.541-2.846,2.78-4.519,3.715c-1.676,0.938-3.515,1.406-5.523,1.406   c-3.885,0-7.23-1.673-10.041-5.02c-2.812-3.345-4.218-7.362-4.218-12.05C202.982,140.533,203.349,138.389,204.086,136.381z"/>
	<polygon style="fill:#FF4F19;" points="316.449,123.729 304.198,112.884 251.983,181.567 195.351,247.639 207.601,258.484    261.623,188.596  "/>
</g>
<g>
	<polygon style="fill:#EE2600;" points="316.449,123.733 261.62,188.594 256,195.865 256,176.284 304.2,112.881  "/>
	<path style="fill:#EE2600;" d="M325.385,216.812c-1.675-3.681-4.017-6.894-7.029-9.64c-3.012-2.743-6.527-4.92-10.543-6.527   c-4.016-1.606-8.369-2.41-13.054-2.41c-4.688,0-9.037,0.804-13.053,2.41c-4.017,1.607-7.5,3.784-10.443,6.527   c-2.947,2.745-5.29,5.959-7.029,9.64c-1.742,3.684-2.611,7.666-2.611,11.949c0,4.286,0.869,8.268,2.611,11.949   c1.738,3.684,4.082,6.863,7.029,9.54c2.943,2.68,6.426,4.82,10.443,6.426c4.016,1.607,8.365,2.41,13.053,2.41   c4.685,0,9.038-0.803,13.054-2.41c4.017-1.607,7.531-3.747,10.543-6.426c3.012-2.677,5.353-5.855,7.029-9.54   c1.673-3.68,2.51-7.663,2.51-11.949C327.896,224.478,327.058,220.496,325.385,216.812z M307.914,235.188   c-0.737,2.008-1.776,3.784-3.113,5.322c-1.34,1.54-2.846,2.78-4.519,3.715c-1.676,0.938-3.515,1.406-5.523,1.406   c-3.885,0-7.229-1.638-10.041-4.921c-2.812-3.279-4.218-7.261-4.218-11.949c0-2.275,0.367-4.45,1.105-6.527   c0.734-2.074,1.773-3.882,3.113-5.422c1.337-1.537,2.843-2.777,4.519-3.715c1.672-0.935,3.515-1.406,5.522-1.406   c1.874,0,3.681,0.436,5.422,1.305c1.738,0.872,3.245,2.077,4.519,3.615c1.271,1.541,2.31,3.348,3.113,5.423   c0.803,2.077,1.205,4.317,1.205,6.728C309.018,231.039,308.648,233.18,307.914,235.188z"/>
</g>
<g>
</g>
<g>
</g>
<g>
</g>
<g>
</g>
<g>
</g>
<g>
</g>
<g>
</g>
<g>
</g>
<g>
</g>
<g>
</g>
<g>
</g>
<g>
</g>
<g>
</g>
<g>
</g>
<g>
</g>
</svg>
