<?xml version="1.0" encoding="iso-8859-1"?>
<!-- Generator: Adobe Illustrator 19.0.0, SVG Export Plug-In . SVG Version: 6.00 Build 0)  -->
<svg xmlns="http://www.w3.org/2000/svg" xmlns:xlink="http://www.w3.org/1999/xlink" version="1.1" id="Layer_1" x="0px" y="0px" viewBox="0 0 512 512" style="enable-background:new 0 0 512 512;" xml:space="preserve">
<circle style="fill:#83E46F;" cx="256" cy="256" r="256"/>
<path style="fill:#2AD827;" d="M512,256c0-19.663-2.223-38.805-6.421-57.195l-92.208-92.208C373.833,64.963,317.95,39,256,39  C136.154,39,39,136.154,39,256c0,61.949,25.962,117.832,67.596,157.371l92.208,92.208C217.195,509.777,236.337,512,256,512  C397.385,512,512,397.385,512,256z"/>
<circle style="fill:#FFFFFF;" cx="256" cy="256" r="217"/>
<path style="fill:#E1E1E3;" d="M473,256c0,119.85-97.15,217-217,217V39C375.85,39,473,136.15,473,256z"/>
<circle style="fill:#0088FF;" cx="256" cy="256" r="175"/>
<path style="fill:#006EF5;" d="M431,256c0,96.65-78.35,175-175,175V81C352.65,81,431,159.35,431,256z"/>
<path style="fill:#FFFFFF;" d="M231.858,172.404v-47.923h48.283v47.923H231.858z M231.858,387.518v-188.81h48.283v188.81H231.858z"/>
<path style="fill:#E1E1E3;" d="M256,198.71v188.81h24.14V198.71H256z M256,124.48v47.92h24.14v-47.92  C280.14,124.48,256,124.48,256,124.48z"/>
<g>
</g>
<g>
</g>
<g>
</g>
<g>
</g>
<g>
</g>
<g>
</g>
<g>
</g>
<g>
</g>
<g>
</g>
<g>
</g>
<g>
</g>
<g>
</g>
<g>
</g>
<g>
</g>
<g>
</g>
</svg>
