<?xml version="1.0" encoding="iso-8859-1"?>
<!-- Generator: Adobe Illustrator 19.0.0, SVG Export Plug-In . SVG Version: 6.00 Build 0)  -->
<svg xmlns="http://www.w3.org/2000/svg" xmlns:xlink="http://www.w3.org/1999/xlink" version="1.1" id="Layer_1" x="0px" y="0px" viewBox="0 0 512 512" style="enable-background:new 0 0 512 512;" xml:space="preserve">
<circle style="fill:#FFED97;" cx="256" cy="256" r="256"/>
<path style="fill:#FFDB2D;" d="M512,256c0-36.552-7.677-71.306-21.48-102.762l-65.601-65.601H87.081v336.725l66.157,66.157  C184.694,504.323,219.448,512,256,512C397.385,512,512,397.385,512,256z"/>
<rect x="87.08" y="87.64" style="fill:#FF9A00;" width="337.84" height="87.47"/>
<g>
	<rect x="256" y="87.64" style="fill:#E67500;" width="168.92" height="87.47"/>
	<rect x="87.08" y="143.01" style="fill:#E67500;" width="337.84" height="281.35"/>
</g>
<rect x="256" y="143.01" style="fill:#C06200;" width="168.92" height="281.35"/>
<rect x="206.83" y="87.64" style="fill:#FFFFFF;" width="98.34" height="135.27"/>
<rect x="256" y="87.64" style="fill:#E1E1E3;" width="49.17" height="135.27"/>
<g>
	<rect x="206.83" y="143.01" style="fill:#D9D9DB;" width="98.34" height="79.898"/>
	<rect x="130.69" y="261.08" style="fill:#D9D9DB;" width="250.62" height="127.08"/>
</g>
<rect x="256" y="261.09" style="fill:#C8C6CC;" width="125.31" height="127.08"/>
<rect x="183.27" y="290.14" style="fill:#E67500;" width="145.46" height="21.17"/>
<rect x="256" y="290.14" style="fill:#C06200;" width="72.73" height="21.17"/>
<rect x="183.27" y="337.94" style="fill:#E67500;" width="145.46" height="21.17"/>
<rect x="256" y="337.94" style="fill:#C06200;" width="72.73" height="21.17"/>
<rect x="256" y="143.01" style="fill:#C8C6CC;" width="49.17" height="79.9"/>
<g>
</g>
<g>
</g>
<g>
</g>
<g>
</g>
<g>
</g>
<g>
</g>
<g>
</g>
<g>
</g>
<g>
</g>
<g>
</g>
<g>
</g>
<g>
</g>
<g>
</g>
<g>
</g>
<g>
</g>
</svg>
