<?xml version="1.0" encoding="iso-8859-1"?>
<!-- Generator: Adobe Illustrator 19.0.0, SVG Export Plug-In . SVG Version: 6.00 Build 0)  -->
<svg xmlns="http://www.w3.org/2000/svg" xmlns:xlink="http://www.w3.org/1999/xlink" version="1.1" id="Layer_1" x="0px" y="0px" viewBox="0 0 512 512" style="enable-background:new 0 0 512 512;" xml:space="preserve">
<circle style="fill:#0088FF;" cx="256" cy="256" r="256"/>
<path style="fill:#005ED3;" d="M512,256c0-18.403-1.958-36.346-5.648-53.648L356.686,52.686c-20.147,20.148-52.813,20.148-72.961,0  l-231.04,231.04c20.148,20.148,20.148,52.813,0,72.961L202.35,506.352C219.654,510.042,237.597,512,256,512  C397.385,512,512,397.385,512,256z"/>
<path style="fill:#CAE8F9;" d="M459.312,155.312L356.686,52.686c-20.147,20.147-52.813,20.147-72.961,0L52.686,283.726  c20.148,20.148,20.148,52.813,0,72.961l102.626,102.626c20.148-20.147,52.813-20.147,72.961,0l231.04-231.039  C439.165,208.125,439.165,175.46,459.312,155.312z"/>
<path style="fill:#84CAFF;" d="M459.314,228.274l-231.04,231.04c-20.146-20.145-52.814-20.145-72.959,0L104,407.999L407.999,104  l51.315,51.315C439.168,175.46,439.168,208.128,459.314,228.274z"/>
<path style="fill:#FFFFFF;" d="M432.922,163.53l-84.454-84.454c-16.58,16.58-43.461,16.58-60.041,0L77.205,290.298  c16.58,16.58,16.58,43.461,0,60.041l84.454,84.453c16.58-16.58,43.461-16.58,60.041,0L432.922,223.57  C416.342,206.991,416.342,180.11,432.922,163.53z"/>
<path style="fill:#E1E1E3;" d="M432.917,223.571l-211.22,211.22c-16.575-16.575-43.459-16.575-60.033,0l-42.235-42.221  l271.267-271.267l42.228,42.228C416.343,180.113,416.343,206.997,432.917,223.571z"/>
<g>
	<path style="fill:#84CAFF;" d="M219.275,275.32c3.18-3.18,5.636-6.759,7.368-10.736c1.73-3.976,2.667-7.952,2.807-11.929   c0.14-3.974-0.467-7.857-1.825-11.649c-1.357-3.787-3.531-7.18-6.526-10.175c-2.899-2.899-6.27-5.05-10.105-6.456   c-3.835-1.401-7.719-2.009-11.649-1.825c-3.93,0.189-7.883,1.147-11.859,2.877c-3.978,1.732-7.557,4.188-10.736,7.368   c-3.276,3.276-5.754,6.877-7.438,10.807c-1.684,3.93-2.621,7.862-2.807,11.789c-0.186,3.932,0.421,7.816,1.825,11.649   c1.403,3.837,3.557,7.206,6.456,10.105c2.996,2.996,6.386,5.171,10.175,6.526c3.789,1.359,7.673,1.967,11.649,1.824   c3.976-0.138,7.929-1.053,11.859-2.737C212.398,281.074,215.999,278.596,219.275,275.32z M184.259,258.689   c-0.89-1.917-1.403-3.881-1.544-5.895c-0.14-2.008,0.046-3.927,0.561-5.754c0.515-1.822,1.473-3.438,2.877-4.842   c2.713-2.713,6.199-3.906,10.456-3.579c4.258,0.329,8.023,2.129,11.298,5.403c1.592,1.592,2.853,3.371,3.789,5.333   c0.936,1.967,1.473,3.956,1.614,5.965c0.14,2.013-0.046,3.932-0.561,5.754c-0.515,1.827-1.474,3.439-2.877,4.842   c-2.715,2.715-6.221,3.884-10.526,3.508c-4.303-0.373-8.092-2.197-11.368-5.473C186.389,262.362,185.147,260.608,184.259,258.689z"/>
	<polygon style="fill:#84CAFF;" points="253.941,171.324 237.801,172.306 249.309,256.794 255.906,342.546 272.046,341.563    260.959,254.97  "/>
	<polygon style="fill:#84CAFF;" points="272.043,341.566 255.907,342.542 249.734,262.264 260.652,251.346 260.956,254.974  "/>
</g>
<path style="fill:#00A6FF;" d="M325.237,230.128c-3.743-1.401-7.625-2.011-11.649-1.824c-4.022,0.188-8,1.123-11.93,2.807  c-3.929,1.684-7.532,4.164-10.807,7.438c-3.276,3.276-5.754,6.877-7.438,10.806c-1.684,3.93-2.597,7.886-2.737,11.859  c-0.14,3.978,0.467,7.861,1.824,11.649c1.358,3.792,3.533,7.182,6.526,10.175c2.995,2.995,6.386,5.171,10.175,6.526  c3.789,1.36,7.649,1.943,11.579,1.755c3.93-0.184,7.859-1.123,11.789-2.807c3.929-1.684,7.53-4.162,10.806-7.438  c3.274-3.274,5.754-6.877,7.438-10.807s2.645-7.882,2.877-11.859c0.234-3.976-0.351-7.833-1.755-11.579  c-1.403-3.741-3.601-7.109-6.596-10.105C332.348,233.732,328.98,231.534,325.237,230.128z M325.868,255.18  c0.888,1.919,1.403,3.886,1.544,5.894c0.14,2.013-0.046,3.932-0.562,5.754c-0.515,1.827-1.474,3.439-2.877,4.842  c-2.715,2.715-6.197,3.907-10.456,3.578c-4.256-0.327-8.022-2.127-11.298-5.403c-1.59-1.59-2.853-3.366-3.789-5.333  c-0.937-1.962-1.474-3.952-1.614-5.965c-0.14-2.009,0.046-3.927,0.561-5.754c0.515-1.822,1.474-3.439,2.877-4.842  c1.309-1.309,2.877-2.268,4.702-2.877c1.824-0.605,3.719-0.816,5.684-0.632c1.965,0.189,3.954,0.726,5.965,1.614  c2.013,0.89,3.859,2.175,5.544,3.86C323.741,251.509,324.978,253.264,325.868,255.18z"/>
<rect x="298.711" y="149.854" transform="matrix(-0.7071 0.7071 -0.7071 -0.7071 675.6876 33.8386)" style="fill:#84CAFF;" width="64.249" height="14.01"/>
<rect x="323.02" y="174.164" transform="matrix(-0.7071 0.7071 -0.7071 -0.7071 734.3757 58.1491)" style="fill:#00A6FF;" width="64.249" height="14.01"/>
<rect x="122.851" y="325.701" transform="matrix(-0.7071 0.7071 -0.7071 -0.7071 499.8185 458.38)" style="fill:#84CAFF;" width="64.249" height="14.01"/>
<rect x="147.16" y="350.011" transform="matrix(-0.7071 0.7071 -0.7071 -0.7071 558.5066 482.6906)" style="fill:#00A6FF;" width="64.249" height="14.01"/>
<g>
</g>
<g>
</g>
<g>
</g>
<g>
</g>
<g>
</g>
<g>
</g>
<g>
</g>
<g>
</g>
<g>
</g>
<g>
</g>
<g>
</g>
<g>
</g>
<g>
</g>
<g>
</g>
<g>
</g>
</svg>
