<?xml version="1.0" encoding="iso-8859-1"?>
<!-- Generator: Adobe Illustrator 19.0.0, SVG Export Plug-In . SVG Version: 6.00 Build 0)  -->
<svg xmlns="http://www.w3.org/2000/svg" xmlns:xlink="http://www.w3.org/1999/xlink" version="1.1" id="Layer_1" x="0px" y="0px" viewBox="0 0 512 512" style="enable-background:new 0 0 512 512;" xml:space="preserve">
<circle style="fill:#0088FF;" cx="256" cy="256" r="256"/>
<path style="fill:#005ED3;" d="M512,256c0-21.831-2.74-43.02-7.882-63.251L395.611,84.242c-5.712-8.052-15.099-13.337-25.666-13.337  H142.054c-17.303,0-31.46,14.157-31.46,31.46v307.27c0,10.567,5.285,19.953,13.337,25.666l68.817,68.817  C212.98,509.26,234.169,512,256,512C397.385,512,512,397.385,512,256z"/>
<path style="fill:#FFFFFF;" d="M369.945,441.095h-227.89c-17.303,0-31.46-14.157-31.46-31.46v-307.27  c0-17.303,14.157-31.46,31.46-31.46h227.891c17.303,0,31.46,14.157,31.46,31.46v307.27  C401.405,426.938,387.249,441.095,369.945,441.095z"/>
<path style="fill:#E1E1E3;" d="M401.41,102.36v307.28c0,17.3-14.16,31.46-31.46,31.46H256V70.9h113.95  C387.25,70.9,401.41,85.06,401.41,102.36z"/>
<rect x="148.5" y="109.5" style="fill:#00C379;" width="215" height="68"/>
<rect x="256" y="109.5" style="fill:#00A753;" width="107.5" height="68"/>
<g>
	<rect x="151.85" y="201.82" style="fill:#FF4F19;" width="53.31" height="53.31"/>
	<rect x="229.34" y="201.82" style="fill:#FF4F19;" width="53.31" height="53.31"/>
</g>
<g>
	<rect x="256" y="201.82" style="fill:#EE2600;" width="26.66" height="53.31"/>
	<rect x="306.83" y="201.82" style="fill:#EE2600;" width="53.31" height="53.31"/>
</g>
<g>
	<rect x="151.85" y="271.82" style="fill:#FF4F19;" width="53.31" height="53.31"/>
	<rect x="229.34" y="271.82" style="fill:#FF4F19;" width="53.31" height="53.31"/>
</g>
<g>
	<rect x="256" y="271.82" style="fill:#EE2600;" width="26.66" height="53.31"/>
	<rect x="306.83" y="271.82" style="fill:#EE2600;" width="53.31" height="53.31"/>
</g>
<g>
	<rect x="151.85" y="341.82" style="fill:#FF4F19;" width="53.31" height="53.31"/>
	<rect x="229.34" y="341.82" style="fill:#FF4F19;" width="53.31" height="53.31"/>
</g>
<g>
	<rect x="256" y="341.82" style="fill:#EE2600;" width="26.66" height="53.31"/>
	<rect x="306.83" y="341.82" style="fill:#EE2600;" width="53.31" height="53.31"/>
</g>
<g>
</g>
<g>
</g>
<g>
</g>
<g>
</g>
<g>
</g>
<g>
</g>
<g>
</g>
<g>
</g>
<g>
</g>
<g>
</g>
<g>
</g>
<g>
</g>
<g>
</g>
<g>
</g>
<g>
</g>
</svg>
