<?xml version="1.0" encoding="iso-8859-1"?>
<!-- Generator: Adobe Illustrator 19.0.0, SVG Export Plug-In . SVG Version: 6.00 Build 0)  -->
<svg xmlns="http://www.w3.org/2000/svg" xmlns:xlink="http://www.w3.org/1999/xlink" version="1.1" id="Layer_1" x="0px" y="0px" viewBox="0 0 512 512" style="enable-background:new 0 0 512 512;" xml:space="preserve">
<circle style="fill:#FFED97;" cx="256" cy="256" r="256"/>
<path style="fill:#FFDB2D;" d="M512,256c0-10.935-0.69-21.71-2.02-32.284L331.264,45H180.736c0,0-13.145,71.819,32.186,123.274  h-0.011l-16.517,30.893h0.016c-52.27,27.129-111.484,82.289-111.484,153.712c0,33.25,12.542,56.601,31.222,72.995l78.775,78.775  C214.499,509.441,234.949,512,256,512C397.385,512,512,397.385,512,256z"/>
<path style="fill:#00C379;" d="M331.264,45H180.736c0,0-14.13,77.151,37.368,128.816h75.791C345.394,122.151,331.264,45,331.264,45z  "/>
<path style="fill:#00A753;" d="M293.9,173.82H256V45h75.26C331.26,45,345.39,122.15,293.9,173.82z"/>
<path style="fill:#00C379;" d="M256.005,180.636l-0.009,0.245v-0.245c-47.838,0-171.068,69.21-171.068,172.243S205.258,464,256,464  s171.073-8.088,171.073-111.121S303.842,180.636,256.005,180.636z"/>
<path style="fill:#00A753;" d="M427.07,352.88C427.07,455.91,306.74,464,256,464V180.64C303.84,180.64,427.07,249.85,427.07,352.88z  "/>
<path style="fill:#FFFFFF;" d="M256,234.001c-51.086,0-92.499,41.413-92.499,92.5S204.914,419,256,419s92.5-41.413,92.5-92.5  S307.086,234.001,256,234.001z"/>
<path style="fill:#E1E1E3;" d="M256,234v185c51.09,0,92.5-41.41,92.5-92.5S307.09,234,256,234z"/>
<path style="fill:#00C379;" d="M295.767,336.721c-1.605-3.357-3.886-6.24-6.841-8.645c-2.958-2.405-6.566-4.409-10.825-6.014  c-4.261-1.602-8.997-3.106-14.208-4.51c-4.01-1.001-7.543-1.955-10.599-2.857c-3.059-0.902-5.589-1.903-7.593-3.007  c-2.006-1.102-3.533-2.38-4.585-3.834c-1.053-1.452-1.579-3.282-1.579-5.487c0-3.808,1.402-6.766,4.21-8.871  c2.805-2.105,7.066-3.157,12.78-3.157c3.206,0,6.364,0.402,9.472,1.203c3.106,0.804,5.988,1.781,8.645,2.932  c2.654,1.154,4.91,2.331,6.765,3.533c1.854,1.203,3.132,2.157,3.834,2.857l9.171-16.839c-4.712-3.206-10.224-5.988-16.538-8.344  c-4.414-1.645-9.129-2.703-14.131-3.199V250.22h-15.49v22.639c-2.169,0.357-4.275,0.841-6.312,1.469  c-4.713,1.454-8.848,3.585-12.404,6.39c-3.559,2.807-6.341,6.315-8.345,10.525c-2.006,4.21-3.007,9.021-3.007,14.433  c0,4.111,0.625,7.644,1.88,10.599c1.252,2.958,3.131,5.563,5.638,7.818c2.504,2.255,5.638,4.21,9.397,5.864  c3.759,1.654,8.194,3.183,13.306,4.585c4.21,1.203,8.018,2.307,11.427,3.308c3.406,1.003,6.314,2.105,8.72,3.308  s4.259,2.608,5.563,4.21c1.301,1.604,1.954,3.559,1.954,5.863c0,7.318-5.713,10.976-17.139,10.976  c-4.111,0-8.119-0.501-12.028-1.504c-3.909-1-7.468-2.229-10.675-3.683c-3.209-1.452-5.99-2.906-8.344-4.36  c-2.356-1.452-3.984-2.631-4.886-3.533l-9.171,17.891c6.213,4.412,13.23,7.818,21.049,10.224c4.427,1.362,8.887,2.325,13.379,2.916  v22.621h15.49v-22.143c3.379-0.256,6.667-0.745,9.846-1.514c4.759-1.151,8.969-2.981,12.629-5.488  c3.658-2.504,6.564-5.788,8.72-9.848c2.154-4.059,3.232-8.946,3.232-14.659C298.173,344.215,297.369,340.081,295.767,336.721z"/>
<g>
	<path style="fill:#00A753;" d="M256.526,290.334c-0.171,0-0.354,0-0.525,0.012V250.22h7.749v22.266   c4.999,0.491,9.712,1.552,14.129,3.195c6.311,2.351,11.823,5.136,16.537,8.342l-9.176,16.845c-0.696-0.707-1.974-1.655-3.835-2.865   c-1.849-1.198-4.108-2.374-6.756-3.526c-2.659-1.153-5.546-2.134-8.651-2.933C262.894,290.745,259.732,290.334,256.526,290.334z"/>
	<path style="fill:#00A753;" d="M298.17,349.12c0,5.718-1.073,10.602-3.23,14.665c-2.157,4.063-5.067,7.338-8.719,9.849   c-3.663,2.499-7.875,4.337-12.634,5.489c-3.173,0.765-6.46,1.256-9.838,1.507v22.151H256v-40.663   c0.97,0.057,1.952,0.091,2.933,0.091c11.424,0,17.142-3.663,17.142-10.979c0-2.305-0.662-4.257-1.963-5.866   c-1.301-1.598-3.15-3.001-5.558-4.211c-2.408-1.198-5.318-2.305-8.719-3.31c-1.221-0.354-2.499-0.731-3.835-1.118v-21.25   c2.385,0.662,5.01,1.358,7.898,2.077c5.204,1.404,9.94,2.91,14.208,4.508c4.257,1.609,7.863,3.606,10.819,6.014   c2.956,2.408,5.238,5.284,6.836,8.651C297.371,340.081,298.17,344.212,298.17,349.12z"/>
</g>
<polygon style="fill:#FFFFFF;" points="315.605,199.167 196.395,199.167 212.911,168.274 299.088,168.274 "/>
<polygon style="fill:#E1E1E3;" points="315.605,199.167 299.088,168.274 256,168.274 256,199.167 "/>
<g>
</g>
<g>
</g>
<g>
</g>
<g>
</g>
<g>
</g>
<g>
</g>
<g>
</g>
<g>
</g>
<g>
</g>
<g>
</g>
<g>
</g>
<g>
</g>
<g>
</g>
<g>
</g>
<g>
</g>
</svg>
