<?xml version="1.0" encoding="iso-8859-1"?>
<!-- Generator: Adobe Illustrator 19.0.0, SVG Export Plug-In . SVG Version: 6.00 Build 0)  -->
<svg xmlns="http://www.w3.org/2000/svg" xmlns:xlink="http://www.w3.org/1999/xlink" version="1.1" id="Layer_1" x="0px" y="0px" viewBox="0 0 512 512" style="enable-background:new 0 0 512 512;" xml:space="preserve">
<circle style="fill:#0088FF;" cx="256" cy="256" r="256"/>
<path style="fill:#005ED3;" d="M512,256c0-19.661-2.223-38.801-6.419-57.19L351.771,45H160.229v97.338l30.78,26.175H77.854V390.73  c0,14.638,6.86,27.667,17.531,36.073l67.866,67.866C192.011,505.853,223.286,512,256,512C397.385,512,512,397.385,512,256z"/>
<rect x="212.9" y="141.29" style="fill:#D9D9DB;" width="86.19" height="29.17"/>
<rect x="256" y="141.29" style="fill:#AEADB3;" width="43.1" height="29.17"/>
<path style="fill:#FFDB2D;" d="M388.237,436.638H123.763c-25.355,0-45.909-20.554-45.909-45.909V168.513h356.291V390.73  C434.146,416.084,413.591,436.638,388.237,436.638z"/>
<path style="fill:#FEC000;" d="M434.15,168.51v222.22c0,25.35-20.56,45.91-45.91,45.91H256V168.51H434.15z"/>
<path style="fill:#FFFFFF;" d="M126.801,436.638H385.2c27.032,0,48.946-21.914,48.946-48.946v-54.085H77.854v54.085  C77.854,414.724,99.768,436.638,126.801,436.638z"/>
<path style="fill:#E1E1E3;" d="M434.15,333.61v54.08c0,27.03-21.92,48.95-48.95,48.95H256V333.61H434.15z"/>
<rect x="167.6" y="367.9" style="fill:#FFDB2D;" width="176.81" height="33.15"/>
<rect x="256" y="367.9" style="fill:#FEC000;" width="88.4" height="33.15"/>
<rect x="183.35" y="384.48" style="fill:#00C379;" width="145.3" height="66.941"/>
<rect x="256" y="384.48" style="fill:#00A753;" width="72.65" height="66.94"/>
<rect x="160.23" y="45" style="fill:#FFFFFF;" width="191.54" height="97.34"/>
<rect x="256" y="45" style="fill:#E1E1E3;" width="95.77" height="97.34"/>
<rect x="177.64" y="58.59" style="fill:#57555C;" width="156.72" height="70.16"/>
<rect x="256" y="58.59" style="fill:#3C3B41;" width="78.36" height="70.16"/>
<rect x="114.34" y="284.27" style="fill:#57555C;" width="118.05" height="20.726"/>
<rect x="127.52" y="197.62" style="fill:#FFFFFF;" width="91.69" height="97.01"/>
<g>
	<rect x="145.01" y="216.2" style="fill:#D9D9DB;" width="56.702" height="9.06"/>
	<rect x="145.01" y="238.94" style="fill:#D9D9DB;" width="56.702" height="9.06"/>
	<rect x="145.01" y="261.68" style="fill:#D9D9DB;" width="56.702" height="9.06"/>
</g>
<g>
	<circle style="fill:#3C3B41;" cx="302.52" cy="214.07" r="13.61"/>
	<circle style="fill:#3C3B41;" cx="343.29" cy="214.07" r="13.61"/>
	<circle style="fill:#3C3B41;" cx="384.05" cy="214.07" r="13.61"/>
	<circle style="fill:#3C3B41;" cx="302.52" cy="251.31" r="13.61"/>
	<circle style="fill:#3C3B41;" cx="343.29" cy="251.31" r="13.61"/>
	<circle style="fill:#3C3B41;" cx="384.05" cy="251.31" r="13.61"/>
	<circle style="fill:#3C3B41;" cx="302.52" cy="288.55" r="13.61"/>
	<circle style="fill:#3C3B41;" cx="343.29" cy="288.55" r="13.61"/>
	<circle style="fill:#3C3B41;" cx="384.05" cy="288.55" r="13.61"/>
</g>
<g>
</g>
<g>
</g>
<g>
</g>
<g>
</g>
<g>
</g>
<g>
</g>
<g>
</g>
<g>
</g>
<g>
</g>
<g>
</g>
<g>
</g>
<g>
</g>
<g>
</g>
<g>
</g>
<g>
</g>
</svg>
