<?xml version="1.0" encoding="iso-8859-1"?>
<!-- Generator: Adobe Illustrator 19.0.0, SVG Export Plug-In . SVG Version: 6.00 Build 0)  -->
<svg xmlns="http://www.w3.org/2000/svg" xmlns:xlink="http://www.w3.org/1999/xlink" version="1.1" id="Layer_1" x="0px" y="0px" viewBox="0 0 512 512" style="enable-background:new 0 0 512 512;" xml:space="preserve">
<circle style="fill:#CAE8F9;" cx="256" cy="256" r="256"/>
<path style="fill:#84CAFF;" d="M512,256c0-31.922-5.86-62.47-16.534-90.652L456.118,126H55.882v260l109.466,109.466  C193.53,506.14,224.078,512,256,512C397.385,512,512,397.385,512,256z"/>
<rect x="55.882" y="339.52" style="fill:#00A753;" width="400.24" height="46.48"/>
<rect x="256" y="339.52" style="fill:#007F40;" width="200.12" height="46.48"/>
<rect x="55.882" y="126" style="fill:#00C379;" width="400.24" height="220.11"/>
<rect x="256" y="126" style="fill:#00A753;" width="200.12" height="220.11"/>
<g>
	<path style="fill:#D5F3CB;" d="M436.842,295.615v-119.12c-16.206,0-29.343-13.137-29.343-29.343H104.501   c0,16.206-13.137,29.343-29.343,29.343v119.12c16.206,0,29.343,13.137,29.343,29.343h302.998   C407.499,308.752,420.637,295.615,436.842,295.615z"/>
	<path style="fill:#D5F3CB;" d="M436.84,176.49v119.12c-16.2,0-29.34,13.14-29.34,29.35H256V147.15h151.5   C407.5,163.36,420.64,176.49,436.84,176.49z"/>
</g>
<path style="fill:#00C379;" d="M256,158.411c-42.882,0-77.644,34.762-77.644,77.644s34.762,77.644,77.644,77.644  s77.644-34.762,77.644-77.644S298.882,158.411,256,158.411z M256,300.342c-35.505,0-64.288-28.783-64.288-64.288  s28.783-64.288,64.288-64.288s64.288,28.783,64.288,64.288S291.505,300.342,256,300.342z"/>
<path style="fill:#00A753;" d="M256,158.41v13.36c35.51,0,64.29,28.78,64.29,64.28c0,35.51-28.78,64.29-64.29,64.29v13.36  c42.88,0,77.64-34.76,77.64-77.65C333.64,193.17,298.88,158.41,256,158.41z"/>
<path style="fill:#00C379;" d="M279.742,242.157c-0.958-2.004-2.32-3.725-4.084-5.161c-1.766-1.436-3.92-2.632-6.463-3.59  c-2.544-0.956-5.372-1.854-8.482-2.693c-2.394-0.598-4.504-1.167-6.328-1.705c-1.826-0.539-3.337-1.136-4.533-1.795  c-1.198-0.658-2.109-1.421-2.738-2.289c-0.628-0.867-0.943-1.959-0.943-3.276c0-2.273,0.837-4.04,2.513-5.296  c1.675-1.257,4.219-1.885,7.63-1.885c1.914,0,3.799,0.24,5.655,0.718c1.854,0.48,3.575,1.063,5.162,1.75  c1.585,0.689,2.931,1.391,4.039,2.109c1.107,0.718,1.87,1.288,2.289,1.705l5.476-10.053c-2.813-1.914-6.104-3.575-9.874-4.982  c-2.635-0.982-5.45-1.614-8.436-1.91v-13.291h-9.248v13.516c-1.295,0.213-2.553,0.502-3.769,0.877  c-2.814,0.868-5.282,2.14-7.406,3.815c-2.125,1.676-3.786,3.77-4.982,6.284c-1.198,2.513-1.795,5.386-1.795,8.617  c0,2.454,0.373,4.564,1.122,6.328c0.748,1.766,1.869,3.321,3.366,4.668c1.495,1.346,3.366,2.513,5.61,3.501  c2.244,0.987,4.892,1.9,7.944,2.738c2.514,0.718,4.787,1.377,6.822,1.975c2.033,0.599,3.77,1.257,5.206,1.975  s2.543,1.557,3.321,2.513c0.777,0.958,1.167,2.125,1.167,3.501c0,4.369-3.411,6.553-10.233,6.553c-2.455,0-4.847-0.299-7.181-0.898  c-2.334-0.597-4.459-1.331-6.373-2.199c-1.916-0.867-3.576-1.735-4.982-2.603c-1.407-0.867-2.378-1.571-2.917-2.109l-5.476,10.682  c3.71,2.634,7.899,4.668,12.567,6.104c2.643,0.813,5.306,1.388,7.988,1.741v13.505h9.248v-13.22c2.017-0.153,3.98-0.445,5.878-0.904  c2.841-0.687,5.355-1.78,7.54-3.276c2.184-1.495,3.919-3.456,5.206-5.88c1.286-2.423,1.93-5.341,1.93-8.752  C281.178,246.631,280.699,244.163,279.742,242.157z"/>
<g>
	<path style="fill:#00A753;" d="M256.314,214.462c-0.102,0-0.211,0-0.313,0.007v-23.957h4.626v13.293   c2.984,0.293,5.798,0.927,8.435,1.908c3.768,1.404,7.059,3.066,9.873,4.981l-5.478,10.057c-0.416-0.422-1.179-0.988-2.289-1.71   c-1.104-0.715-2.453-1.417-4.034-2.105c-1.587-0.688-3.311-1.274-5.165-1.751C260.116,214.708,258.228,214.462,256.314,214.462z"/>
	<path style="fill:#00A753;" d="M281.177,249.559c0,3.414-0.641,6.33-1.928,8.755c-1.288,2.426-3.025,4.381-5.206,5.88   c-2.187,1.492-4.701,2.589-7.543,3.277c-1.894,0.456-3.857,0.75-5.873,0.899v13.225H256V257.32   c0.579,0.034,1.165,0.054,1.751,0.054c6.82,0,10.234-2.187,10.234-6.555c0-1.376-0.395-2.541-1.172-3.502   c-0.777-0.954-1.881-1.792-3.318-2.514c-1.438-0.716-3.175-1.376-5.206-1.976c-0.729-0.211-1.492-0.436-2.289-0.668v-12.687   c1.424,0.395,2.991,0.811,4.715,1.24c3.107,0.838,5.935,1.738,8.483,2.691c2.541,0.961,4.694,2.153,6.459,3.591   s3.127,3.155,4.081,5.165C280.7,244.163,281.177,246.63,281.177,249.559z"/>
</g>
<circle style="fill:#00C379;" cx="136.75" cy="236.06" r="22.847"/>
<circle style="fill:#00A753;" cx="375.25" cy="236.06" r="22.847"/>
<g>
</g>
<g>
</g>
<g>
</g>
<g>
</g>
<g>
</g>
<g>
</g>
<g>
</g>
<g>
</g>
<g>
</g>
<g>
</g>
<g>
</g>
<g>
</g>
<g>
</g>
<g>
</g>
<g>
</g>
</svg>
