<?xml version="1.0" encoding="iso-8859-1"?>
<!-- Generator: Adobe Illustrator 19.0.0, SVG Export Plug-In . SVG Version: 6.00 Build 0)  -->
<svg xmlns="http://www.w3.org/2000/svg" xmlns:xlink="http://www.w3.org/1999/xlink" version="1.1" id="Layer_1" x="0px" y="0px" viewBox="0 0 512 512" style="enable-background:new 0 0 512 512;" xml:space="preserve">
<circle style="fill:#FFED97;" cx="256" cy="256" r="256"/>
<path style="fill:#FFDB2D;" d="M512,256c0-24.577-3.471-48.342-9.936-70.839l-48.602-48.602  c-4.904-8.024-13.748-13.409-23.789-13.409H82.327c-15.321,0-27.856,12.535-27.856,27.856v209.988c0,8.176,3.57,15.558,9.228,20.666  l121.143,120.309C207.434,508.493,231.307,512,256,512C397.385,512,512,397.385,512,256z"/>
<path style="fill:#00A6FF;" d="M429.673,388.85H82.327c-15.321,0-27.856-12.535-27.856-27.857V151.006  c0-15.321,12.535-27.856,27.856-27.856h347.346c15.321,0,27.856,12.535,27.856,27.856v209.988  C457.529,376.315,444.994,388.85,429.673,388.85z"/>
<path style="fill:#0088FF;" d="M429.673,123.15H256v265.7h173.673c15.321,0,27.856-12.535,27.856-27.857V151.006  C457.529,135.685,444.994,123.15,429.673,123.15z"/>
<rect x="54.47" y="175.96" style="fill:#3C3B41;" width="403.06" height="54.33"/>
<rect x="256" y="175.96" style="fill:#2A2A2C;" width="201.53" height="54.33"/>
<rect x="275.03" y="282.41" style="fill:#B1DCFF;" width="163.47" height="76.05"/>
<circle style="fill:#FFDB2D;" cx="116.08" cy="323.96" r="34.5"/>
<circle style="fill:#FF4F19;" cx="170.58" cy="323.96" r="34.5"/>
<g>
</g>
<g>
</g>
<g>
</g>
<g>
</g>
<g>
</g>
<g>
</g>
<g>
</g>
<g>
</g>
<g>
</g>
<g>
</g>
<g>
</g>
<g>
</g>
<g>
</g>
<g>
</g>
<g>
</g>
</svg>
