<?xml version="1.0" encoding="iso-8859-1"?>
<!-- Generator: Adobe Illustrator 19.0.0, SVG Export Plug-In . SVG Version: 6.00 Build 0)  -->
<svg xmlns="http://www.w3.org/2000/svg" xmlns:xlink="http://www.w3.org/1999/xlink" version="1.1" id="Layer_1" x="0px" y="0px" viewBox="0 0 512 512" style="enable-background:new 0 0 512 512;" xml:space="preserve">
<circle style="fill:#CAE8F9;" cx="256" cy="256" r="256"/>
<path style="fill:#84CAFF;" d="M512,256c0-11.378-0.752-22.579-2.191-33.564l-44.215-44.215h-17.586L337.318,67.683  c-20.024-22.299-49.059-36.35-81.318-36.35c-60.268,0-109.299,49.032-109.299,109.299v37.589H46.406l55.2,248.539  c1.756,7.908,6.194,14.649,12.225,19.365l48.205,48.079C191.127,505.689,222.826,512,256,512C397.385,512,512,397.385,512,256z"/>
<path style="fill:#9A4C00;" d="M365.299,188.918h-21.295v-48.285c0-48.526-39.478-88.004-88.004-88.004  s-88.004,39.478-88.004,88.004v48.285h-21.295v-48.285c0-60.268,49.031-109.299,109.299-109.299s109.299,49.032,109.299,109.299  V188.918z"/>
<path style="fill:#703700;" d="M365.3,140.63v48.29H344v-48.29c0-48.52-39.47-88-88-88v-21.3C316.27,31.33,365.3,80.36,365.3,140.63  z"/>
<path style="fill:#FF4F19;" d="M46.406,178.222l55.2,248.539c3.448,15.526,17.218,26.573,33.122,26.573h242.543  c15.904,0,29.674-11.047,33.122-26.573l55.2-248.539L46.406,178.222L46.406,178.222z"/>
<path style="fill:#EE2600;" d="M465.59,178.22l-55.2,248.54c-3.44,15.53-17.21,26.57-33.12,26.57H256V178.22H465.59z"/>
<path style="fill:#FFDB2D;" d="M174.058,229.153c0,25.591,19.807,46.529,44.016,46.529h75.851c24.209,0,44.016-20.938,44.016-46.529  v-66.931H174.058V229.153z"/>
<path style="fill:#FDC000;" d="M337.94,162.22v66.93c0,25.59-19.81,46.53-44.01,46.53H256V162.22H337.94z"/>
<circle style="fill:#9A4C00;" cx="256" cy="233.54" r="20.487"/>
<path style="fill:#703700;" d="M276.49,233.54c0,11.31-9.18,20.48-20.49,20.48v-40.97C267.31,213.05,276.49,222.22,276.49,233.54z"/>
<g>
</g>
<g>
</g>
<g>
</g>
<g>
</g>
<g>
</g>
<g>
</g>
<g>
</g>
<g>
</g>
<g>
</g>
<g>
</g>
<g>
</g>
<g>
</g>
<g>
</g>
<g>
</g>
<g>
</g>
</svg>
