<?xml version="1.0" encoding="iso-8859-1"?>
<!-- Generator: Adobe Illustrator 19.0.0, SVG Export Plug-In . SVG Version: 6.00 Build 0)  -->
<svg xmlns="http://www.w3.org/2000/svg" xmlns:xlink="http://www.w3.org/1999/xlink" version="1.1" id="Layer_1" x="0px" y="0px" viewBox="0 0 512 512" style="enable-background:new 0 0 512 512;" xml:space="preserve">
<circle style="fill:#83E46F;" cx="256" cy="256" r="256"/>
<path style="fill:#2AD827;" d="M512,256c0-19.662-2.223-38.805-6.421-57.195l-92.208-92.208C373.833,64.963,317.95,39,256,39  C136.154,39,39,136.154,39,256c0,61.95,25.962,117.833,67.596,157.371l92.208,92.208C217.195,509.777,236.337,512,256,512  C397.385,512,512,397.385,512,256z"/>
<circle style="fill:#FFFFFF;" cx="256" cy="256" r="217"/>
<path style="fill:#D9D9DB;" d="M473,256c0,119.85-97.15,217-217,217V39C375.85,39,473,136.15,473,256z"/>
<circle style="fill:#FF4F19;" cx="256" cy="256" r="175"/>
<path style="fill:#EE2600;" d="M431,256c0,96.65-78.35,175-175,175V81C352.65,81,431,159.35,431,256z"/>
<path style="fill:#FFDB2D;" d="M269.323,121.979l32.007,59.77c2.181,4.074,6.107,6.926,10.655,7.741l66.735,11.97  c11.878,2.131,16.592,16.637,8.234,25.343L340,275.713c-3.2,3.333-4.699,7.948-4.07,12.526l9.238,67.168  c1.644,11.955-10.696,20.921-21.558,15.663l-61.026-29.542c-4.159-2.013-9.011-2.013-13.17,0l-61.026,29.542  c-10.862,5.258-23.202-3.707-21.558-15.663l9.238-67.168c0.63-4.578-0.87-9.192-4.07-12.526l-46.954-48.91  c-8.357-8.705-3.644-23.212,8.234-25.343l66.735-11.97c4.548-0.816,8.474-3.668,10.655-7.741l32.007-59.77  C248.373,111.34,263.627,111.34,269.323,121.979z"/>
<path style="fill:#FDC000;" d="M340,275.71c-3.2,3.34-4.7,7.95-4.07,12.53l9.24,67.17c1.64,11.95-10.7,20.92-21.56,15.66  l-61.02-29.54c-2.08-1.01-4.33-1.51-6.59-1.51V114c5.24,0,10.48,2.66,13.32,7.98l32.01,59.77c2.18,4.07,6.11,6.92,10.65,7.74  l66.74,11.97c11.88,2.13,16.59,16.64,8.23,25.34L340,275.71z"/>
<g>
</g>
<g>
</g>
<g>
</g>
<g>
</g>
<g>
</g>
<g>
</g>
<g>
</g>
<g>
</g>
<g>
</g>
<g>
</g>
<g>
</g>
<g>
</g>
<g>
</g>
<g>
</g>
<g>
</g>
</svg>
