<?xml version="1.0" encoding="iso-8859-1"?>
<!-- Generator: Adobe Illustrator 19.0.0, SVG Export Plug-In . SVG Version: 6.00 Build 0)  -->
<svg xmlns="http://www.w3.org/2000/svg" xmlns:xlink="http://www.w3.org/1999/xlink" version="1.1" id="Layer_1" x="0px" y="0px" viewBox="0 0 512 512" style="enable-background:new 0 0 512 512;" xml:space="preserve">
<circle style="fill:#FFED97;" cx="256" cy="256" r="256"/>
<path style="fill:#FFDB2D;" d="M512,256c0-16.699-1.618-33.019-4.671-48.827L359.132,58.212c-9.163-11.344-30.321-9.19-41.507,5.746  c-6.667,8.902-20.177,26.53-32.853,43.01c-7.261-7.563-17.465-12.278-28.776-12.278c-8.613,0-16.582,2.739-23.103,7.38  l-38.419-37.969c-0.034-0.046-0.074-0.098-0.107-0.143c-14.536-19.41-45.933-17.253-45.933,8.088c0,20.398,0,54.762,0,67.396H83.467  v95.971l16.44,13.63v167.231c0,11.003,5.34,20.819,13.557,26.985l52.406,52.406C193.906,506.213,224.275,512,256,512  C397.385,512,512,397.385,512,256z"/>
<g>
	<path style="fill:#FFFFFF;" d="M255.998,144.294c0,0-47.095-60.926-61.631-80.336s-45.933-17.253-45.933,8.088s0,72.248,0,72.248   H255.998z"/>
	<path style="fill:#FFFFFF;" d="M255.995,144.294c0,0,47.095-60.926,61.631-80.336s45.933-17.253,45.933,8.088s0,72.248,0,72.248   H255.995z"/>
</g>
<g>
	<path style="fill:#D9D9DB;" d="M255.995,144.294c0,0,47.095-60.926,61.631-80.336s45.933-17.253,45.933,8.088s0,72.248,0,72.248   H255.995z"/>
	<path style="fill:#D9D9DB;" d="M295.895,134.589c0-22.035-17.863-39.898-39.898-39.898s-39.898,17.863-39.898,39.898   c0,3.348,0.418,6.598,1.195,9.705H294.7C295.477,141.186,295.895,137.937,295.895,134.589z"/>
</g>
<path style="fill:#8B8992;" d="M294.7,144.294c0.777-3.107,1.195-6.357,1.195-9.705c0-22.034-17.861-39.896-39.895-39.898v49.603  H294.7z"/>
<path style="fill:#00C379;" d="M378.367,450H133.633c-18.549,0-33.726-15.177-33.726-33.726V171.791h312.186v244.483  C412.093,434.823,396.916,450,378.367,450z"/>
<path style="fill:#00A753;" d="M256,171.791V450h122.367c18.549,0,33.726-15.177,33.726-33.726V171.791H256z"/>
<rect x="83.47" y="139.44" style="fill:#0088FF;" width="345.07" height="95.97"/>
<rect x="256" y="139.44" style="fill:#005ED3;" width="172.53" height="95.97"/>
<rect x="211.05" y="139.44" style="fill:#FFFFFF;" width="89.9" height="310.56"/>
<rect x="256" y="139.44" style="fill:#D9D9DB;" width="44.95" height="310.56"/>
<g>
</g>
<g>
</g>
<g>
</g>
<g>
</g>
<g>
</g>
<g>
</g>
<g>
</g>
<g>
</g>
<g>
</g>
<g>
</g>
<g>
</g>
<g>
</g>
<g>
</g>
<g>
</g>
<g>
</g>
</svg>
