<?xml version="1.0" encoding="iso-8859-1"?>
<!-- Generator: Adobe Illustrator 19.0.0, SVG Export Plug-In . SVG Version: 6.00 Build 0)  -->
<svg xmlns="http://www.w3.org/2000/svg" xmlns:xlink="http://www.w3.org/1999/xlink" version="1.1" id="Layer_1" x="0px" y="0px" viewBox="0 0 512 512" style="enable-background:new 0 0 512 512;" xml:space="preserve">
<circle style="fill:#FF4F19;" cx="256" cy="256" r="256"/>
<path style="fill:#EE2600;" d="M512,256c0-42.979-10.608-83.475-29.323-119.04l-64.701-64.701l-200.894,62.474H98.765  c-18.883,0-34.333,15.45-34.333,34.333v89.76c0,10.563,4.835,20.049,12.4,26.36l27.925,27.969V426.74  c0,4.279,1.705,8.172,4.468,11.046l59.922,59.091C196.267,506.658,225.508,512,256,512C397.385,512,512,397.385,512,256z"/>
<g>
	<polygon style="fill:#00A753;" points="171.6,322.674 193.702,372.313 171.6,372.313  "/>
	<polygon style="fill:#00A753;" points="404.535,166.955 404.535,260.938 447.568,244.424 447.568,183.47  "/>
</g>
<path style="fill:#FFDB2D;" d="M223.646,134.733H98.765c-18.883,0-34.333,15.45-34.333,34.333v89.76  c0,18.883,15.45,34.333,34.333,34.333h5.992V426.74c0,8.8,7.2,16,16,16h35.545c8.8,0,16-7.2,16-16V293.16h51.344V134.733z"/>
<polygon style="fill:#FFFFFF;" points="217.082,134.733 417.976,72.259 417.976,202.916 417.976,224.977 417.976,355.634   217.082,293.16 "/>
<rect x="192.28" y="134.73" style="fill:#00C379;" width="24.806" height="158.43"/>
<path style="fill:#FEC000;" d="M138.5,134.733v308.008h17.802c8.8,0,16-7.2,16-16V293.16h51.344V134.733H138.5z"/>
<g>
</g>
<g>
</g>
<g>
</g>
<g>
</g>
<g>
</g>
<g>
</g>
<g>
</g>
<g>
</g>
<g>
</g>
<g>
</g>
<g>
</g>
<g>
</g>
<g>
</g>
<g>
</g>
<g>
</g>
</svg>
