<?xml version="1.0" encoding="iso-8859-1"?>
<!-- Generator: Adobe Illustrator 19.0.0, SVG Export Plug-In . SVG Version: 6.00 Build 0)  -->
<svg xmlns="http://www.w3.org/2000/svg" xmlns:xlink="http://www.w3.org/1999/xlink" version="1.1" id="Layer_1" x="0px" y="0px" viewBox="0 0 512 512" style="enable-background:new 0 0 512 512;" xml:space="preserve">
<circle style="fill:#FF4F19;" cx="256" cy="256" r="256"/>
<path style="fill:#EE2600;" d="M512,256c0-29.598-5.04-58.015-14.28-84.461l-31.811-32.515c-3.467-4.617-8.979-7.606-15.199-7.606  H61.289c-10.51,0-19.03,8.52-19.03,19.03v211.104c0,6.033,2.813,11.401,7.195,14.881L173.32,498.347  C199.258,507.194,227.067,512,256,512C397.385,512,512,397.385,512,256z"/>
<path style="fill:#FFFFFF;" d="M450.711,380.582H61.289c-10.51,0-19.03-8.52-19.03-19.03V150.448c0-10.51,8.52-19.03,19.03-19.03  H450.71c10.51,0,19.03,8.52,19.03,19.03v211.104C469.741,372.062,461.22,380.582,450.711,380.582z"/>
<path style="fill:#E1E1E3;" d="M449.405,131.418H256v48.126h24.991v152.911H256v48.126h193.405c11.231,0,20.336-9.104,20.336-20.336  V151.754C469.741,140.523,460.636,131.418,449.405,131.418z"/>
<rect x="93.06" y="179.54" style="fill:#00A6FF;" width="41.699" height="152.91"/>
<rect x="377.24" y="179.54" style="fill:#006EF5;" width="41.699" height="152.91"/>
<rect x="220.43" y="179.54" style="fill:#00A6FF;" width="60.56" height="152.91"/>
<rect x="256" y="179.54" style="fill:#006EF5;" width="24.991" height="152.91"/>
<g>
	<rect x="152.83" y="179.54" style="fill:#00A6FF;" width="20.85" height="152.91"/>
	<rect x="190.67" y="179.54" style="fill:#00A6FF;" width="15.587" height="152.91"/>
</g>
<g>
	<rect x="329.64" y="179.54" style="fill:#006EF5;" width="12.01" height="152.91"/>
	<rect x="353.33" y="179.54" style="fill:#006EF5;" width="12.01" height="152.91"/>
	<rect x="295.41" y="179.54" style="fill:#006EF5;" width="20.909" height="152.91"/>
</g>
<g>
</g>
<g>
</g>
<g>
</g>
<g>
</g>
<g>
</g>
<g>
</g>
<g>
</g>
<g>
</g>
<g>
</g>
<g>
</g>
<g>
</g>
<g>
</g>
<g>
</g>
<g>
</g>
<g>
</g>
</svg>
