<?xml version="1.0" encoding="iso-8859-1"?>
<!-- Generator: Adobe Illustrator 19.0.0, SVG Export Plug-In . SVG Version: 6.00 Build 0)  -->
<svg xmlns="http://www.w3.org/2000/svg" xmlns:xlink="http://www.w3.org/1999/xlink" version="1.1" id="Layer_1" x="0px" y="0px" viewBox="0 0 512 512" style="enable-background:new 0 0 512 512;" xml:space="preserve">
<circle style="fill:#0088FF;" cx="256" cy="256" r="256"/>
<path style="fill:#005ED3;" d="M512,256c0-7.816-0.37-15.544-1.056-23.181L399.268,121.143  C363.384,83.035,312.475,59.236,256,59.236C147.33,59.236,59.236,147.33,59.236,256c0,56.475,23.8,107.384,61.907,143.268  l111.676,111.676C240.456,511.63,248.184,512,256,512C397.385,512,512,397.385,512,256z"/>
<circle style="fill:#FFDB2D;" cx="256" cy="256" r="196.76"/>
<path style="fill:#FDC000;" d="M452.76,256c0,108.67-88.09,196.76-196.76,196.76V59.24C364.67,59.24,452.76,147.33,452.76,256z"/>
<path style="fill:#FF9A00;" d="M319.915,272.431c-2.579-5.395-6.245-10.028-10.995-13.894c-4.754-3.866-10.554-7.087-17.399-9.666  c-6.849-2.575-14.461-4.991-22.835-7.249c-6.445-1.609-12.124-3.142-17.035-4.591c-4.916-1.45-8.983-3.059-12.203-4.833  c-3.224-1.771-5.679-3.825-7.37-6.162c-1.692-2.334-2.538-5.274-2.538-8.82c0-6.12,2.254-10.874,6.766-14.257  c4.508-3.384,11.358-5.074,20.54-5.074c5.153,0,10.228,0.645,15.223,1.933c4.992,1.291,9.625,2.862,13.895,4.712  c4.266,1.855,7.891,3.746,10.873,5.679c2.979,1.933,5.033,3.467,6.162,4.591l14.74-27.064c-7.574-5.153-16.432-9.625-26.58-13.411  c-7.094-2.644-14.672-4.345-22.711-5.142v-35.779h-24.896v36.386c-3.485,0.573-6.872,1.352-10.145,2.36  c-7.574,2.337-14.22,5.762-19.936,10.27c-5.721,4.512-10.191,10.149-13.412,16.916c-3.224,6.765-4.833,14.498-4.833,23.197  c0,6.607,1.005,12.286,3.021,17.035c2.012,4.754,5.033,8.941,9.061,12.566c4.025,3.624,9.062,6.766,15.103,9.424  c6.041,2.658,13.169,5.116,21.385,7.37c6.766,1.934,12.887,3.707,18.366,5.316c5.474,1.612,10.148,3.383,14.015,5.316  c3.866,1.933,6.845,4.191,8.941,6.766c2.091,2.579,3.141,5.721,3.141,9.424c0,11.762-9.182,17.641-27.547,17.641  c-6.608,0-13.048-0.805-19.331-2.417c-6.283-1.608-12.003-3.582-17.157-5.92c-5.158-2.334-9.628-4.671-13.411-7.008  c-3.787-2.334-6.403-4.229-7.853-5.679l-14.74,28.755c9.986,7.091,21.264,12.566,33.83,16.432  c7.115,2.189,14.284,3.736,21.503,4.686v36.356h24.896v-35.589c5.43-0.412,10.716-1.198,15.824-2.433  c7.649-1.85,14.415-4.791,20.298-8.82c5.878-4.025,10.549-9.303,14.015-15.828c3.462-6.524,5.195-14.378,5.195-23.56  C323.781,284.476,322.489,277.831,319.915,272.431z"/>
<g>
	<path style="fill:#E67500;" d="M323.78,292.37c0,9.18-1.73,17.03-5.19,23.56c-3.47,6.52-8.14,11.8-14.02,15.82   c-5.88,4.03-12.65,6.98-20.3,8.82c-5.11,1.24-10.39,2.03-15.82,2.44v35.59H256v-65.35c1.56,0.09,3.13,0.14,4.71,0.14   c18.37,0,27.55-5.88,27.55-17.64c0-3.7-1.05-6.85-3.14-9.42c-2.1-2.58-5.08-4.84-8.94-6.77c-3.87-1.93-8.54-3.7-14.02-5.32   c-1.97-0.58-4.02-1.17-6.16-1.79v-34.17c3.83,1.07,8.06,2.19,12.69,3.34c8.37,2.26,15.98,4.68,22.83,7.25   c6.85,2.58,12.65,5.8,17.4,9.67c4.75,3.86,8.42,8.5,10.99,13.89C322.49,277.83,323.78,284.48,323.78,292.37z"/>
	<path style="fill:#E67500;" d="M256.85,197.88c-0.29,0-0.57,0-0.85,0.01V133.4h12.45v35.78c8.04,0.8,15.61,2.5,22.71,5.14   c10.15,3.79,19.01,8.26,26.58,13.42L303,214.8c-1.13-1.13-3.18-2.66-6.16-4.59c-2.99-1.93-6.61-3.83-10.88-5.68   c-4.27-1.85-8.9-3.42-13.89-4.71C267.07,198.53,262,197.88,256.85,197.88z"/>
</g>
<path style="fill:#FF9A00;" d="M256,86.173c-93.642,0-169.827,76.184-169.827,169.827S162.358,425.827,256,425.827  S425.827,349.643,425.827,256S349.642,86.173,256,86.173z M256,403.897c-81.55,0-147.897-66.346-147.897-147.897  S174.45,108.103,256,108.103S403.897,174.45,403.897,256S337.55,403.897,256,403.897z"/>
<path style="fill:#E67500;" d="M256,86.17v21.93c81.55,0,147.9,66.35,147.9,147.9S337.55,403.9,256,403.9v21.93  c93.64,0,169.83-76.19,169.83-169.83S349.64,86.17,256,86.17z"/>
<g>
</g>
<g>
</g>
<g>
</g>
<g>
</g>
<g>
</g>
<g>
</g>
<g>
</g>
<g>
</g>
<g>
</g>
<g>
</g>
<g>
</g>
<g>
</g>
<g>
</g>
<g>
</g>
<g>
</g>
</svg>
