<?xml version="1.0" encoding="iso-8859-1"?>
<!-- Generator: Adobe Illustrator 19.0.0, SVG Export Plug-In . SVG Version: 6.00 Build 0)  -->
<svg xmlns="http://www.w3.org/2000/svg" xmlns:xlink="http://www.w3.org/1999/xlink" version="1.1" id="Layer_1" x="0px" y="0px" viewBox="0 0 512 512" style="enable-background:new 0 0 512 512;" xml:space="preserve">
<circle style="fill:#FFED97;" cx="256" cy="256" r="256"/>
<path style="fill:#FFDB2D;" d="M512,256c0-33.972-6.633-66.391-18.649-96.053l-67.785-67.785  c-9.794-11.41-24.349-18.616-40.588-18.498l-107.18,0.78c-13.726,0.1-26.861,5.597-36.567,15.303l-204.67,204.67  c-13.179,13.179-13.179,34.547,0,47.726L200.33,505.911C218.254,509.887,236.879,512,256,512C397.385,512,512,397.385,512,256z"/>
<path style="fill:#E67500;" d="M437.556,234.202l0.78-107.18c0.215-29.558-23.801-53.573-53.358-53.358l-107.18,0.78  c-13.726,0.1-26.861,5.597-36.567,15.303l-204.67,204.67c-13.179,13.179-13.179,34.547,0,47.726L169.857,475.44  c13.179,13.179,34.547,13.179,47.726,0l204.67-204.67C431.959,261.063,437.456,247.928,437.556,234.202z M360.089,151.911  c-7.909-7.909-7.909-20.732,0-28.64c7.909-7.909,20.731-7.909,28.64,0c7.909,7.909,7.909,20.731,0,28.64  C380.82,159.82,367.997,159.82,360.089,151.911z"/>
<path style="fill:#C06100;" d="M437.557,234.206l0.778-107.183c0.113-14.779-5.841-28.171-15.514-37.844l-34.09,34.09  c7.905,7.906,7.905,20.732-0.007,28.645c-7.905,7.905-20.732,7.905-28.638,0L103.209,408.791l66.645,66.645  c13.18,13.18,34.549,13.18,47.73,0l204.665-204.665C431.957,261.062,437.458,247.924,437.557,234.206z"/>
<path style="fill:#FFDB2D;" d="M403.001,108.999c-15.791-15.791-41.393-15.791-57.184,0c-15.791,15.791-15.791,41.393,0,57.184  s41.393,15.791,57.184,0S418.792,124.79,403.001,108.999z M354.972,157.028c-10.734-10.734-10.735-28.139,0-38.873  c10.734-10.735,28.138-10.734,38.873,0c10.734,10.734,10.734,28.138,0,38.873C383.111,167.762,365.707,167.762,354.972,157.028z"/>
<path style="fill:#FDC000;" d="M403.001,108.999l-9.157,9.157c10.734,10.734,10.741,28.136,0,38.877  c-10.734,10.734-28.136,10.727-38.87-0.007l-9.157,9.157c15.79,15.79,41.394,15.797,57.184,0.007  C418.798,150.393,418.791,124.788,403.001,108.999z"/>
<rect x="140.943" y="158.223" transform="matrix(-0.7071 -0.7071 0.7071 -0.7071 186.4723 646.8227)" style="fill:#FFDB2D;" width="172.508" height="253.138"/>
<rect x="131.13" y="272.169" transform="matrix(-0.7071 0.7071 -0.7071 -0.7071 662.8686 356.0288)" style="fill:#FDC000;" width="253.138" height="86.259"/>
<rect x="134.675" y="309.609" transform="matrix(-0.7071 -0.7071 0.7071 -0.7071 103.3252 681.2761)" style="fill:#9A4C00;" width="116.169" height="19.26"/>
<rect x="203.669" y="310.726" transform="matrix(-0.7071 0.7071 -0.7071 -0.7071 604.3787 429.1991)" style="fill:#703700;" width="19.26" height="58.089"/>
<rect x="106.818" y="337.467" transform="matrix(-0.7071 -0.7071 0.7071 -0.7071 36.0723 709.1349)" style="fill:#9A4C00;" width="116.169" height="19.26"/>
<rect x="175.806" y="338.592" transform="matrix(-0.7071 0.7071 -0.7071 -0.7071 576.5184 496.4726)" style="fill:#703700;" width="19.26" height="58.089"/>
<circle style="fill:#9A4C00;" cx="255.24" cy="256.76" r="58.09"/>
<path style="fill:#703700;" d="M296.313,297.839c-22.684,22.684-59.461,22.677-82.145-0.007l82.145-82.145  C318.997,238.371,318.997,275.155,296.313,297.839z"/>
<g>
</g>
<g>
</g>
<g>
</g>
<g>
</g>
<g>
</g>
<g>
</g>
<g>
</g>
<g>
</g>
<g>
</g>
<g>
</g>
<g>
</g>
<g>
</g>
<g>
</g>
<g>
</g>
<g>
</g>
</svg>
