<?xml version="1.0" encoding="iso-8859-1"?>
<!-- Generator: Adobe Illustrator 19.0.0, SVG Export Plug-In . SVG Version: 6.00 Build 0)  -->
<svg xmlns="http://www.w3.org/2000/svg" xmlns:xlink="http://www.w3.org/1999/xlink" version="1.1" id="Layer_1" x="0px" y="0px" viewBox="0 0 512 512" style="enable-background:new 0 0 512 512;" xml:space="preserve">
<circle style="fill:#0088FF;" cx="256" cy="256" r="256"/>
<path style="fill:#005ED3;" d="M512,256c0-2.27-0.032-4.533-0.091-6.79L398.102,135.403h-3.92l-60.277-60.466  c-11.902-11.902-31.199-11.902-43.101,0c-8.794,8.794-11.082,21.622-6.882,32.524L268.705,122.7l-47.508-47.763  c-11.902-11.902-31.199-11.902-43.101,0s-11.902,31.199,0,43.101l17.557,17.365h-81.755v41.665c0,0-63.784,88.731-62.977,145.055  c0.38,26.519,9.533,47.562,26.274,62.41L198.08,505.419c18.612,4.305,38,6.581,57.92,6.581C397.385,512,512,397.385,512,256z"/>
<path style="fill:#FFFFFF;" d="M256.02,135.403l-27.942-27.942c4.201-10.902,1.912-23.73-6.882-32.524  c-11.902-11.902-31.199-11.902-43.101,0s-11.902,31.199,0,43.101c8.794,8.794,21.622,11.082,32.524,6.882l10.484,10.483H113.898  v47.259h284.204v-47.259H256.02z"/>
<path style="fill:#D9D9DB;" d="M290.897,135.403l10.483-10.483c10.902,4.2,23.73,1.912,32.524-6.882  c11.902-11.902,11.902-31.199,0-43.101s-31.199-11.902-43.101,0c-8.794,8.794-11.082,21.622-6.882,32.524l-27.902,27.942H256v47.259  h142.102v-47.259H290.897z"/>
<path style="fill:#FFDB2D;" d="M398.102,177.068H113.898c0,0-63.784,88.731-62.977,145.055s41.177,87.959,109.806,87.959  c54,0,136.546,0,190.546,0c68.629,0,108.999-31.635,109.806-87.959C461.887,265.799,398.102,177.068,398.102,177.068z"/>
<path style="fill:#FDC000;" d="M398.102,177.068H256v233.014c34.136,0,68.273,0,95.273,0c68.629,0,108.999-31.634,109.806-87.959  C461.887,265.799,398.102,177.068,398.102,177.068z"/>
<g>
</g>
<g>
</g>
<g>
</g>
<g>
</g>
<g>
</g>
<g>
</g>
<g>
</g>
<g>
</g>
<g>
</g>
<g>
</g>
<g>
</g>
<g>
</g>
<g>
</g>
<g>
</g>
<g>
</g>
</svg>
