<?xml version="1.0" encoding="iso-8859-1"?>
<!-- Generator: Adobe Illustrator 19.0.0, SVG Export Plug-In . SVG Version: 6.00 Build 0)  -->
<svg xmlns="http://www.w3.org/2000/svg" xmlns:xlink="http://www.w3.org/1999/xlink" version="1.1" id="Layer_1" x="0px" y="0px" viewBox="0 0 512 512" style="enable-background:new 0 0 512 512;" xml:space="preserve">
<circle style="fill:#83E46F;" cx="256" cy="256" r="256"/>
<path style="fill:#2AD827;" d="M512,256c0-12.508-0.915-24.802-2.648-36.83L370.925,81.143  c-7.311-10.19-20.786-15.053-33.527-10.588l-16.112,5.647c-7.793,2.731-16.184,2-23.228-1.663L298,74.471  c-1.768-2.057-3.753-3.797-5.885-5.232l-4-4.653c-1.768-2.057-3.753-3.797-5.885-5.232l-4-4.653  c-11.697-13.606-32.763-13.606-44.46,0l-11.13,12.946c-7.867,9.151-20.538,12.546-31.926,8.555l-16.112-5.647  c-16.933-5.935-35.177,4.598-38.504,22.23l-3.166,16.776c-2.238,11.858-11.513,21.134-23.372,23.372l-16.776,3.166  c-17.632,3.327-28.165,21.571-22.23,38.504l5.647,16.112c3.991,11.388,0.596,24.059-8.555,31.926L54.7,233.771  c-13.606,11.697-13.606,32.763,0,44.46l4.653,4c1.435,2.132,3.175,4.117,5.232,5.885l4.653,4c1.435,2.132,3.175,4.117,5.232,5.885  l0.068,0.058c3.663,7.044,4.394,15.435,1.663,23.228l-5.647,16.112c-3.997,11.405-0.519,23.398,7.563,31.032l141.592,140.998  C231.566,511.11,243.678,512,256,512C397.385,512,512,397.385,512,256z"/>
<path style="fill:#0088FF;" d="M278.23,54.701l11.13,12.946c7.867,9.151,20.538,12.546,31.926,8.555l16.112-5.647  c16.933-5.935,35.177,4.598,38.504,22.23l3.166,16.777c2.238,11.858,11.513,21.134,23.372,23.372l16.777,3.166  c17.632,3.327,28.165,21.57,22.23,38.504l-5.647,16.112c-3.991,11.388-0.596,24.059,8.555,31.926l12.946,11.13  c13.606,11.697,13.606,32.763,0,44.46l-12.946,11.13c-9.151,7.867-12.546,20.538-8.555,31.926l5.647,16.112  c5.935,16.933-4.598,35.177-22.23,38.504l-16.777,3.166c-11.858,2.238-21.134,11.513-23.372,23.372l-3.166,16.777  c-3.327,17.632-21.571,28.165-38.504,22.23l-16.112-5.647c-11.388-3.991-24.059-0.596-31.926,8.555l-11.13,12.946  c-11.697,13.606-32.763,13.606-44.46,0l-11.13-12.946c-7.867-9.151-20.538-12.546-31.926-8.555l-16.112,5.647  c-16.933,5.935-35.177-4.598-38.504-22.23l-3.166-16.777c-2.238-11.858-11.513-21.134-23.372-23.372l-16.777-3.166  c-17.632-3.327-28.165-21.57-22.23-38.504l5.647-16.112c3.991-11.388,0.596-24.059-8.555-31.926l-12.946-11.13  c-13.606-11.697-13.606-32.763,0-44.46l12.946-11.13c9.151-7.867,12.546-20.538,8.555-31.926l-5.647-16.112  c-5.935-16.933,4.598-35.177,22.23-38.504l16.777-3.166c11.858-2.238,21.134-11.513,23.372-23.372l3.166-16.777  c3.327-17.632,21.57-28.165,38.504-22.23l16.112,5.647c11.388,3.991,24.059,0.596,31.926-8.555l11.13-12.946  C245.467,41.095,266.533,41.095,278.23,54.701z"/>
<path style="fill:#006EF5;" d="M457.3,278.23l-12.95,11.13c-9.15,7.87-12.54,20.54-8.55,31.93l5.65,16.11  c5.93,16.93-4.6,35.17-22.23,38.5l-16.78,3.17c-11.86,2.23-21.14,11.51-23.37,23.37l-3.17,16.78c-3.33,17.63-21.57,28.16-38.5,22.23  l-16.11-5.65c-11.39-3.99-24.06-0.6-31.93,8.55l-11.13,12.95c-5.85,6.8-14.04,10.21-22.23,10.21V44.49  c8.19,0,16.38,3.41,22.23,10.21l11.13,12.95c7.87,9.15,20.54,12.54,31.93,8.55l16.11-5.65c16.93-5.93,35.17,4.6,38.5,22.23  l3.17,16.78c2.23,11.86,11.51,21.14,23.37,23.37l16.78,3.17c17.63,3.33,28.16,21.57,22.23,38.5l-5.65,16.11  c-3.99,11.39-0.6,24.06,8.55,31.93l12.95,11.13C470.91,245.47,470.91,266.53,457.3,278.23z"/>
<g>
	<path style="fill:#FFFFFF;" d="M199.171,237.744c6.671,0,13.002-1.178,18.992-3.533c5.986-2.356,11.139-5.544,15.459-9.57   c4.315-4.021,7.752-8.732,10.306-14.133c2.549-5.397,3.828-11.235,3.828-17.52c0-6.082-1.279-11.875-3.828-17.372   c-2.553-5.493-5.99-10.205-10.306-14.134c-4.32-3.924-9.473-7.066-15.459-9.422c-5.99-2.355-12.321-3.533-18.992-3.533   c-6.873,0-13.25,1.178-19.139,3.533c-5.889,2.356-10.996,5.498-15.311,9.422c-4.32,3.929-7.757,8.641-10.306,14.134   c-2.553,5.497-3.828,11.29-3.828,17.372c0,6.285,1.274,12.123,3.828,17.52c2.549,5.401,5.986,10.112,10.306,14.133   c4.315,4.025,9.422,7.214,15.311,9.57C185.921,236.566,192.298,237.744,199.171,237.744z M179.885,183.565   c1.077-2.945,2.6-5.544,4.564-7.803c1.96-2.254,4.168-4.072,6.625-5.447c2.452-1.371,5.153-2.061,8.097-2.061   c5.691,0,10.6,2.406,14.723,7.215c4.122,4.812,6.183,10.65,6.183,17.519c0,3.34-0.543,6.529-1.619,9.57   c-1.081,3.046-2.604,5.696-4.564,7.95c-1.965,2.259-4.173,4.076-6.625,5.447c-2.457,1.376-5.153,2.061-8.098,2.061   c-5.695,0-10.6-2.452-14.722-7.361c-4.122-4.905-6.184-10.794-6.184-17.667C178.265,189.652,178.804,186.51,179.885,183.565z"/>
	<polygon style="fill:#FFFFFF;" points="344.629,165.015 326.668,149.115 250.111,249.816 167.077,346.691 185.038,362.591    264.245,260.123  "/>
</g>
<g>
	<polygon style="fill:#E1E1E3;" points="344.63,165.02 264.24,260.12 256,270.78 256,242.07 326.67,149.11  "/>
	<path style="fill:#E1E1E3;" d="M357.732,301.492c-2.456-5.397-5.889-10.108-10.306-14.134c-4.417-4.021-9.57-7.214-15.459-9.57   c-5.888-2.355-12.27-3.533-19.139-3.533c-6.874,0-13.25,1.178-19.139,3.533c-5.889,2.356-10.996,5.548-15.311,9.57   c-4.32,4.025-7.757,8.737-10.306,14.134c-2.553,5.402-3.828,11.24-3.828,17.52c0,6.284,1.274,12.123,3.828,17.519   c2.549,5.402,5.986,10.062,10.306,13.987c4.315,3.929,9.422,7.067,15.311,9.422s12.265,3.533,19.139,3.533   c6.869,0,13.251-1.178,19.139-3.533c5.889-2.356,11.042-5.493,15.459-9.422c4.416-3.925,7.849-8.585,10.306-13.987   c2.452-5.396,3.68-11.235,3.68-17.519C361.413,312.732,360.185,306.894,357.732,301.492z M332.115,328.435   c-1.081,2.944-2.604,5.548-4.564,7.803c-1.965,2.259-4.173,4.076-6.625,5.447c-2.457,1.376-5.153,2.061-8.098,2.061   c-5.696,0-10.6-2.402-14.722-7.214c-4.122-4.808-6.184-10.646-6.184-17.519c0-3.336,0.539-6.524,1.62-9.57   c1.076-3.041,2.599-5.691,4.564-7.95c1.96-2.254,4.168-4.072,6.625-5.447c2.452-1.371,5.153-2.061,8.097-2.061   c2.747,0,5.397,0.639,7.95,1.914c2.549,1.279,4.757,3.046,6.625,5.3c1.864,2.259,3.386,4.909,4.564,7.95   c1.178,3.046,1.767,6.33,1.767,9.864C333.735,322.352,333.192,325.49,332.115,328.435z"/>
</g>
<g>
</g>
<g>
</g>
<g>
</g>
<g>
</g>
<g>
</g>
<g>
</g>
<g>
</g>
<g>
</g>
<g>
</g>
<g>
</g>
<g>
</g>
<g>
</g>
<g>
</g>
<g>
</g>
<g>
</g>
</svg>
