<?xml version="1.0" encoding="iso-8859-1"?>
<!-- Generator: Adobe Illustrator 19.0.0, SVG Export Plug-In . SVG Version: 6.00 Build 0)  -->
<svg xmlns="http://www.w3.org/2000/svg" xmlns:xlink="http://www.w3.org/1999/xlink" version="1.1" id="Layer_1" x="0px" y="0px" viewBox="0 0 512 512" style="enable-background:new 0 0 512 512;" xml:space="preserve">
<circle style="fill:#83E46F;" cx="256" cy="256" r="256"/>
<path style="fill:#2AD827;" d="M512,256c0-27.906-4.482-54.762-12.736-79.906l-81.679-81.679  c-60.984-60.984-159.858-60.984-220.842,0c-52.196,52.196-59.71,132.147-22.555,192.343L86.336,374.61  c-9.636,9.636-9.636,25.259,0,34.895l89.759,89.759C201.24,507.519,228.095,512,256,512C397.385,512,512,397.385,512,256z"/>
<path style="fill:#FF4F19;" d="M417.585,315.256c60.984-60.984,60.984-159.858,0-220.841c-60.984-60.984-159.858-60.984-220.841,0  c-52.197,52.196-59.71,132.147-22.555,192.343L86.337,374.61c-9.636,9.636-9.636,25.259,0,34.895l16.158,16.158  c9.636,9.636,25.259,9.636,34.895,0l87.852-87.852C285.438,374.966,365.388,367.453,417.585,315.256z"/>
<path style="fill:#EE2600;" d="M417.588,315.255c-52.199,52.198-132.151,59.715-192.347,22.557l-87.851,87.851  c-9.638,9.638-25.265,9.638-34.896,0.007l-8.082-8.082L417.588,94.411C478.569,155.392,478.569,254.274,417.588,315.255z"/>
<circle style="fill:#FFFFFF;" cx="307.16" cy="204.84" r="125.15"/>
<path style="fill:#E1E1E3;" d="M395.661,293.328c-48.875,48.875-128.114,48.875-176.989,0l176.982-176.982  C444.529,165.221,444.529,244.46,395.661,293.328z"/>
<circle style="fill:#83CAFF;" cx="307.16" cy="204.84" r="106.61"/>
<path style="fill:#00A6FF;" d="M382.551,280.218c-41.634,41.634-109.142,41.642-150.776,0.007l150.776-150.776  C424.186,171.083,424.186,238.583,382.551,280.218z"/>
<g>
</g>
<g>
</g>
<g>
</g>
<g>
</g>
<g>
</g>
<g>
</g>
<g>
</g>
<g>
</g>
<g>
</g>
<g>
</g>
<g>
</g>
<g>
</g>
<g>
</g>
<g>
</g>
<g>
</g>
</svg>
