<?xml version="1.0" encoding="iso-8859-1"?>
<!-- Generator: Adobe Illustrator 19.0.0, SVG Export Plug-In . SVG Version: 6.00 Build 0)  -->
<svg xmlns="http://www.w3.org/2000/svg" xmlns:xlink="http://www.w3.org/1999/xlink" version="1.1" id="Layer_1" x="0px" y="0px" viewBox="0 0 512 512" style="enable-background:new 0 0 512 512;" xml:space="preserve">
<circle style="fill:#CAE8F9;" cx="256" cy="256" r="256"/>
<path style="fill:#84CAFF;" d="M512,256c0-40.766-9.545-79.297-26.496-113.506L422.509,79.5H89.49v103.626  c0,11.53,5.839,21.69,14.717,27.702l3.92,4.764v181.045H89.49V432.5l53.004,53.004C176.703,502.455,215.234,512,256,512  C397.385,512,512,397.385,512,256z"/>
<rect x="108.13" y="100.51" style="fill:#FFFFFF;" width="295.75" height="320.72"/>
<rect x="256" y="100.51" style="fill:#E1E1E3;" width="147.87" height="320.72"/>
<g>
	<rect x="149.54" y="281" style="fill:#FF4F19;" width="79.85" height="140.23"/>
	<rect x="89.49" y="85.14" style="fill:#FF4F19;" width="333.02" height="94.27"/>
</g>
<rect x="89.49" y="396.64" style="fill:#0088FF;" width="333.02" height="35.864"/>
<rect x="256" y="396.64" style="fill:#006EF5;" width="166.51" height="35.86"/>
<path style="fill:#FFDB2D;" d="M156.025,85.136v97.991c0,18.469,14.972,33.441,33.441,33.441s33.441-14.972,33.441-33.441V85.136  H156.025z"/>
<path style="fill:#FF4F19;" d="M89.491,85.136v97.991c0,18.469,14.972,33.441,33.441,33.441s33.441-14.972,33.441-33.441V85.136  H89.491z"/>
<path style="fill:#EE2600;" d="M355.627,85.136v97.991c0,18.469,14.972,33.441,33.441,33.441c18.469,0,33.441-14.972,33.441-33.441  V85.136H355.627z"/>
<path style="fill:#FDC000;" d="M289.093,85.136v97.991c0,18.469,14.972,33.441,33.441,33.441s33.441-14.972,33.441-33.441V85.136  H289.093z"/>
<path style="fill:#FF4F19;" d="M222.559,85.136v97.991c0,18.469,14.972,33.441,33.441,33.441s33.441-14.972,33.441-33.441V85.136  H222.559z"/>
<path style="fill:#EE2600;" d="M289.44,85.14v97.99c0,18.47-14.97,33.44-33.44,33.44V85.14H289.44z"/>
<rect x="89.49" y="79.5" style="fill:#0088FF;" width="333.02" height="52.771"/>
<g>
	<rect x="256" y="79.5" style="fill:#006EF5;" width="166.51" height="52.77"/>
	<rect x="276.25" y="248.33" style="fill:#006EF5;" width="105.62" height="118.67"/>
</g>
<g>
</g>
<g>
</g>
<g>
</g>
<g>
</g>
<g>
</g>
<g>
</g>
<g>
</g>
<g>
</g>
<g>
</g>
<g>
</g>
<g>
</g>
<g>
</g>
<g>
</g>
<g>
</g>
<g>
</g>
</svg>
