<?xml version="1.0" encoding="iso-8859-1"?>
<!-- Generator: Adobe Illustrator 19.0.0, SVG Export Plug-In . SVG Version: 6.00 Build 0)  -->
<svg xmlns="http://www.w3.org/2000/svg" xmlns:xlink="http://www.w3.org/1999/xlink" version="1.1" id="Layer_1" x="0px" y="0px" viewBox="0 0 512 512" style="enable-background:new 0 0 512 512;" xml:space="preserve">
<circle style="fill:#FF4F19;" cx="256" cy="256" r="256"/>
<path style="fill:#EE2600;" d="M512,256c0-41.13-9.715-79.986-26.952-114.423l-62.744-62.744l-47.273,18.704  c-17.316-11.801-38.237-18.704-60.772-18.704c-59.671,0-108.045,48.373-108.045,108.045c0,10.768,1.583,21.165,4.515,30.979  c-4.259-0.51-8.593-0.78-12.99-0.78c-59.671,0-108.045,48.373-108.045,108.044c0,22.535,6.903,43.457,18.704,60.772l-18.704,47.273  l51.881,51.881C176.014,502.285,214.87,512,256,512C397.385,512,512,397.385,512,256z"/>
<path style="fill:#FFFFFF;" d="M375.031,97.537c-17.315-11.801-38.237-18.704-60.772-18.704  c-59.671,0-108.045,48.373-108.045,108.045s48.373,108.045,108.045,108.045s108.045-48.373,108.045-108.045  c0-22.535-6.903-43.456-18.704-60.772l18.704-47.273L375.031,97.537z"/>
<path style="fill:#E1E1E3;" d="M403.6,126.11c11.8,17.31,18.7,38.23,18.7,60.77c0,59.67-48.37,108.04-108.04,108.04V78.83  c22.53,0,43.46,6.91,60.77,18.71l47.27-18.71L403.6,126.11z"/>
<path style="fill:#00C379;" d="M349.105,195.836c-1.406-2.941-3.405-5.467-5.994-7.575c-2.592-2.108-5.754-3.864-9.486-5.27  c-3.734-1.404-7.884-2.721-12.449-3.952c-3.514-0.877-6.61-1.713-9.287-2.503c-2.68-0.791-4.897-1.668-6.653-2.635  c-1.758-0.965-3.096-2.085-4.018-3.359c-0.922-1.272-1.383-2.876-1.383-4.808c0-3.337,1.229-5.928,3.689-7.773  c2.458-1.845,6.192-2.767,11.198-2.767c2.81,0,5.576,0.352,8.299,1.054c2.721,0.704,5.247,1.561,7.575,2.569  c2.326,1.011,4.302,2.042,5.928,3.096c1.624,1.054,2.744,1.89,3.359,2.503l8.036-14.755c-4.129-2.81-8.958-5.247-14.491-7.312  c-3.868-1.442-7.999-2.369-12.382-2.803V120.04h-13.573v19.837c-1.9,0.313-3.746,0.737-5.531,1.287  c-4.129,1.274-7.753,3.141-10.869,5.599c-3.119,2.46-5.556,5.533-7.312,9.222c-1.758,3.688-2.635,7.904-2.635,12.647  c0,3.602,0.548,6.698,1.647,9.287c1.097,2.592,2.744,4.874,4.94,6.851c2.194,1.976,4.94,3.688,8.234,5.138  c3.294,1.449,7.18,2.789,11.659,4.018c3.689,1.054,7.026,2.021,10.013,2.898c2.984,0.879,5.533,1.844,7.641,2.898  s3.732,2.285,4.874,3.689c1.14,1.406,1.712,3.119,1.712,5.138c0,6.412-5.006,9.617-15.018,9.617c-3.602,0-7.114-0.439-10.539-1.318  c-3.425-0.877-6.544-1.953-9.354-3.227c-2.812-1.272-5.249-2.547-7.311-3.821c-2.065-1.272-3.491-2.305-4.281-3.096l-8.036,15.677  c5.444,3.866,11.593,6.851,18.444,8.958c3.879,1.194,7.787,2.037,11.723,2.555v19.821h13.573v-19.403  c2.961-0.225,5.842-0.653,8.627-1.327c4.17-1.008,7.859-2.612,11.066-4.808c3.205-2.194,5.751-5.072,7.641-8.629  c1.888-3.557,2.832-7.839,2.832-12.845C351.213,202.403,350.509,198.78,349.105,195.836z"/>
<g>
	<path style="fill:#00A753;" d="M314.72,155.19c-0.15,0-0.31,0-0.46,0.01v-35.16h6.79v19.51c4.38,0.43,8.51,1.36,12.38,2.8   c5.53,2.06,10.36,4.5,14.49,7.31l-8.04,14.76c-0.61-0.62-1.73-1.45-3.36-2.51c-1.62-1.05-3.6-2.08-5.92-3.09   c-2.33-1.01-4.86-1.87-7.58-2.57S317.53,155.19,314.72,155.19z"/>
	<path style="fill:#00A753;" d="M351.21,206.7c0,5.01-0.94,9.29-2.83,12.85c-1.89,3.56-4.44,6.43-7.64,8.63   c-3.21,2.19-6.9,3.8-11.07,4.81c-2.78,0.67-5.66,1.1-8.62,1.32v19.41h-6.79v-35.63c0.85,0.05,1.71,0.08,2.57,0.08   c10.01,0,15.02-3.21,15.02-9.62c0-2.02-0.58-3.73-1.72-5.14c-1.14-1.4-2.76-2.63-4.87-3.69c-2.11-1.05-4.66-2.02-7.64-2.9   c-1.07-0.31-2.19-0.64-3.36-0.98v-18.62c2.09,0.58,4.39,1.19,6.92,1.82c4.56,1.23,8.71,2.55,12.45,3.95   c3.73,1.41,6.89,3.16,9.48,5.27s4.59,4.63,5.99,7.58C350.51,198.78,351.21,202.4,351.21,206.7z"/>
</g>
<path style="fill:#00C379;" d="M108.4,385.894c-11.801-17.315-18.704-38.237-18.704-60.772c0-59.671,48.373-108.045,108.045-108.045  s108.045,48.373,108.045,108.045s-48.373,108.045-108.045,108.045c-22.535,0-43.456-6.903-60.772-18.704l-47.273,18.704  L108.4,385.894z"/>
<path style="fill:#00A753;" d="M305.79,325.12c0,59.67-48.38,108.05-108.05,108.05V217.08  C257.41,217.08,305.79,265.45,305.79,325.12z"/>
<g>
	<circle style="fill:#FFFFFF;" cx="143.1" cy="325.12" r="16.554"/>
	<circle style="fill:#FFFFFF;" cx="197.74" cy="325.12" r="16.554"/>
</g>
<g>
	<path style="fill:#E1E1E3;" d="M214.29,325.12c0,9.14-7.41,16.56-16.55,16.56v-33.11C206.88,308.57,214.29,315.98,214.29,325.12z"/>
	<circle style="fill:#E1E1E3;" cx="252.38" cy="325.12" r="16.554"/>
</g>
<g>
</g>
<g>
</g>
<g>
</g>
<g>
</g>
<g>
</g>
<g>
</g>
<g>
</g>
<g>
</g>
<g>
</g>
<g>
</g>
<g>
</g>
<g>
</g>
<g>
</g>
<g>
</g>
<g>
</g>
</svg>
