<?xml version="1.0" encoding="iso-8859-1"?>
<!-- Generator: Adobe Illustrator 19.0.0, SVG Export Plug-In . SVG Version: 6.00 Build 0)  -->
<svg xmlns="http://www.w3.org/2000/svg" xmlns:xlink="http://www.w3.org/1999/xlink" version="1.1" id="Layer_1" x="0px" y="0px" viewBox="0 0 512 512" style="enable-background:new 0 0 512 512;" xml:space="preserve">
<circle style="fill:#FFED97;" cx="256" cy="256" r="256"/>
<path style="fill:#FFDB2D;" d="M512,256c0-4.714-0.137-9.396-0.388-14.048L325.605,55.945l-2.192,1.238l-22.937-24.238  L157.495,150.93l-19.339,10.927h-8.771c-20.492,0-37.258,16.766-37.258,37.258v197.627c0,11.447,5.236,21.724,13.427,28.572  l75.981,75.671C205.101,508.139,230.098,512,256,512C397.385,512,512,397.385,512,256z"/>
<rect x="175.509" y="45.138" transform="matrix(-0.6365 -0.7713 0.7713 -0.6365 278.2678 474.4106)" style="fill:#00A753;" width="150.843" height="252.985"/>
<polygon style="fill:#007F40;" points="396.477,149.285 300.475,32.945 256,69.646 256,265.205 "/>
<rect x="178.498" y="55.049" transform="matrix(-0.4919 -0.8706 0.8706 -0.4919 216.8547 489.616)" style="fill:#00C379;" width="145.583" height="252.969"/>
<polygon style="fill:#00A753;" points="397.23,182.7 256,262.5 256,95.27 325.6,55.95 "/>
<path style="fill:#D5F3CB;" d="M180.524,294.547L117.98,183.853L322.052,68.549l62.544,110.694L180.524,294.547z M123.608,185.417  l58.481,103.502l196.88-111.241L320.488,74.177L123.608,185.417z"/>
<path style="fill:#9EE98F;" d="M322.05,68.55L256,105.87v4.75l64.49-36.44l58.48,103.5L256,247.16v4.74l128.6-72.66L322.05,68.55z"/>
<circle style="fill:#D5F3CB;" cx="251.29" cy="181.55" r="46.47"/>
<g>
	<path style="fill:#9EE98F;" d="M274.15,222c-5.78,3.26-11.95,5.15-18.15,5.78v-92.47c14.48,1.5,28.04,9.75,35.74,23.38   C304.37,181.03,296.49,209.38,274.15,222z"/>
	<circle style="fill:#9EE98F;" cx="321.86" cy="141.67" r="11.656"/>
</g>
<circle style="fill:#C7EFD9;" cx="180.72" cy="221.42" r="11.656"/>
<path style="fill:#E67500;" d="M382.615,434h-253.23c-20.492,0-37.258-16.766-37.258-37.258V199.115  c0-20.492,16.766-37.258,37.258-37.258h253.23c20.492,0,37.258,16.766,37.258,37.258v197.627  C419.873,417.234,403.107,434,382.615,434z"/>
<path style="fill:#C06100;" d="M382.615,161.857H256V434h126.615c20.492,0,37.258-16.766,37.258-37.258V199.115  C419.873,178.623,403.107,161.857,382.615,161.857z"/>
<path style="fill:#703700;" d="M426.528,337.616h-84.833c-12.357,0-22.375-10.018-22.375-22.375v-34.625  c0-12.357,10.018-22.375,22.375-22.375h84.833V337.616z"/>
<circle style="fill:#FFEC97;" cx="362.62" cy="297.93" r="24.74"/>
<g>
</g>
<g>
</g>
<g>
</g>
<g>
</g>
<g>
</g>
<g>
</g>
<g>
</g>
<g>
</g>
<g>
</g>
<g>
</g>
<g>
</g>
<g>
</g>
<g>
</g>
<g>
</g>
<g>
</g>
</svg>
